<?xml version="1.0" encoding="UTF-8"?>
<svg id="Layer_1" data-name="Layer 1" xmlns="http://www.w3.org/2000/svg" version="1.1" xmlns:xlink="http://www.w3.org/1999/xlink" viewBox="0 0 128 128">
  <defs>
    <style>
      .cls-1 {
        fill: url(#New_Gradient_Swatch_1);
        fill-rule: evenodd;
        stroke-width: 0px;
      }
    </style>
    <linearGradient id="New_Gradient_Swatch_1" data-name="New Gradient Swatch 1" x1="2.9" y1="64" x2="125.1" y2="64" gradientUnits="userSpaceOnUse">
      <stop offset="0" stop-color="#999"/>
      <stop offset="1" stop-color="#f2f2f2"/>
    </linearGradient>
  </defs>
  <path class="cls-1" d="M35.9,29.8c.4-.5.8-1.2,1.4-2.1.3-.5,1.5-2.4,1.6-2.7,4.6-7.5,8-11,14-11h22.2c6,0,9.4,3.5,14,11,.2.3,1.3,2.2,1.6,2.7.6.9,1,1.6,1.4,2.1.3.4.5.6.7.9h15.6c9.2,0,16.7,7.5,16.7,16.7v50c0,9.2-7.5,16.7-16.7,16.7H19.6c-9.2,0-16.7-7.5-16.7-16.7v-50c0-9.2,7.5-16.7,16.7-16.7h15.6c.2-.2.4-.5.7-.9ZM19.6,41.8c-3.1,0-5.6,2.5-5.6,5.6v50c0,3.1,2.5,5.6,5.6,5.6h88.9c3.1,0,5.6-2.5,5.6-5.6v-50c0-3.1-2.5-5.6-5.6-5.6h-16.7c-3.7,0-6.2-2-8.7-5.5-.6-.8-1.1-1.7-1.8-2.8-.3-.6-1.5-2.5-1.7-2.7-2.5-4.1-4-5.7-4.5-5.7h-22.2c-.5,0-2,1.6-4.5,5.7-.2.3-1.3,2.2-1.7,2.7-.7,1.1-1.3,2-1.8,2.8-2.5,3.5-5,5.5-8.7,5.5h-16.7ZM102.9,58.4c3.1,0,5.6-2.5,5.6-5.6s-2.5-5.6-5.6-5.6-5.6,2.5-5.6,5.6,2.5,5.6,5.6,5.6ZM64,97.3c-15.3,0-27.8-12.4-27.8-27.8s12.4-27.8,27.8-27.8,27.8,12.4,27.8,27.8-12.4,27.8-27.8,27.8ZM64,86.2c9.2,0,16.7-7.5,16.7-16.7s-7.5-16.7-16.7-16.7-16.7,7.5-16.7,16.7,7.5,16.7,16.7,16.7Z"/>
</svg>