<?xml version="1.0" encoding="UTF-8"?>
<svg id="_2" data-name=" 2" xmlns="http://www.w3.org/2000/svg" version="1.1" xmlns:xlink="http://www.w3.org/1999/xlink" viewBox="0 0 128 128">
  <defs>
    <style>
      .cls-1 {
        fill: url(#linear-gradient);
      }

      .cls-1, .cls-2 {
        stroke-width: 0px;
      }

      .cls-2 {
        fill: url(#linear-gradient-2);
      }
    </style>
    <linearGradient id="linear-gradient" x1="15.9" y1="-1806" x2="111.9" y2="-1806" gradientTransform="translate(0 -1742) scale(1 -1)" gradientUnits="userSpaceOnUse">
      <stop offset="0" stop-color="#999"/>
      <stop offset="1" stop-color="#f2f2f2"/>
    </linearGradient>
    <linearGradient id="linear-gradient-2" x1="64" y1="0" x2="64" y2="128" gradientTransform="translate(0 128) scale(1 -1)" gradientUnits="userSpaceOnUse">
      <stop offset="0" stop-color="#999"/>
      <stop offset="1" stop-color="#f2f2f2"/>
    </linearGradient>
  </defs>
  <path class="cls-1" d="M72.3,36.6c-3.1,1-6.4,2.2-8.9,3.6-4.9,2.5-11.8,3.7-18.9,1.7-.7,3.1,1.6,6.1,5.2,6,3.7,0,7.2,2.4,6,6-1.2,3.7-4.3,2.2-7.9-.5-6.9-5.3-14.8,0-17.5,5.7,5.3-2.2,11.5,1,10.3,4.9-1.2,4.5-6.5,4.5-10.5.5-5.7-5.7-10.1-.5-14.1-1.2.5,2.5,3.3,3.7,5.7,3.7,5.2,0,5.3,3.6,8.4,6.4,3.6,3.3,8.1,4.5,12.5,2,9.4-4.9,14.6-2.4,13.4,2.8-.8,3.4-7.7,4.1-10.3,1.3,0,5.2,4.6,7.9,11.7,7.9s9.3,1.7,14.8,4.1c3.3,1.2,6.9,1.9,10.5,1.9,16.3,0,29.4-13.2,29.4-29.4s-13.2-29.4-29.4-29.4-7.2.7-10.3,1.7h0v.3ZM104.5,64.2c0,9.4-7.6,17-17,17s-16.6-4.6-18.7-4.6c1.3-3.3,3.7-2.8,6.4-2.5,1.2,0,2.4-.5,2.9-1.2.5-.5.5-1.3.5-2.2,0-1.9-1.6-3.4-3.4-3.4s-1.2,0-1.7.5c-2.4,1-4.5,2.9-9.1,0-4-2.4-7.6-2.4-7.6-2.4,0,0,3.4-5.8,8.9-3.1,2.8,1.6,4.8,1.2,6.1,0,.8-.7,1.6-1.9,1.6-3.1s0-.7,0-1v-.5h0c-.7-1.3-2-2.4-3.7-2.4s-1,0-1.6.4h0s4.5-8.1,19.9-8.1,17,7.6,17,17h-.5v-.4Z"/>
  <path class="cls-2" d="M64,6c32,0,58,26,58,58s-26,58-58,58S6,96,6,64,32,6,64,6M64,0C28.6,0,0,28.6,0,64s28.6,64,64,64,64-28.7,64-64S99.3,0,64,0h0Z"/>
</svg>