<?xml version="1.0" encoding="UTF-8"?>
<svg id="GameModeBase_64" data-name="GameModeBase 64" xmlns="http://www.w3.org/2000/svg" version="1.1" xmlns:xlink="http://www.w3.org/1999/xlink" viewBox="0 0 128 128">
  <defs>
    <style>
      .cls-1 {
        fill: url(#linear-gradient-8);
      }

      .cls-1, .cls-2, .cls-3, .cls-4, .cls-5, .cls-6, .cls-7, .cls-8, .cls-9, .cls-10, .cls-11, .cls-12, .cls-13, .cls-14, .cls-15 {
        stroke-width: 0px;
      }

      .cls-1, .cls-2, .cls-4, .cls-7, .cls-16, .cls-10, .cls-11, .cls-13, .cls-15 {
        fill-rule: evenodd;
      }

      .cls-2 {
        fill: url(#linear-gradient-7);
      }

      .cls-3 {
        fill: url(#linear-gradient);
      }

      .cls-4, .cls-7 {
        isolation: isolate;
        opacity: .3;
      }

      .cls-4, .cls-17 {
        fill: #fff;
      }

      .cls-5 {
        fill: url(#linear-gradient-6);
      }

      .cls-6 {
        fill: #5b5b5b;
      }

      .cls-7 {
        fill: #000;
      }

      .cls-8 {
        fill: url(#linear-gradient-5);
      }

      .cls-9 {
        fill: none;
      }

      .cls-16 {
        fill: #e5e5e5;
      }

      .cls-16, .cls-17 {
        stroke: #bfbfbf;
        stroke-miterlimit: 10;
        stroke-width: .2px;
      }

      .cls-10 {
        fill: #bfbfbf;
      }

      .cls-11 {
        fill: url(#linear-gradient-2);
      }

      .cls-12 {
        fill: url(#linear-gradient-3);
      }

      .cls-13, .cls-14 {
        fill: #7f7f7f;
      }

      .cls-18 {
        display: none;
      }

      .cls-15 {
        fill: url(#linear-gradient-4);
      }
    </style>
    <linearGradient id="linear-gradient" x1="116.2" y1="1904" x2="80.2" y2="1920.8" gradientTransform="translate(0 -1870)" gradientUnits="userSpaceOnUse">
      <stop offset="0" stop-color="#0e0e0e"/>
      <stop offset="1" stop-color="#0b0b0b"/>
    </linearGradient>
    <linearGradient id="linear-gradient-2" x1="28.4" y1="1922.6" x2="122.6" y2="1922.6" gradientTransform="translate(0 -1870)" gradientUnits="userSpaceOnUse">
      <stop offset="0" stop-color="#5a5a5a"/>
      <stop offset=".6" stop-color="#8a8a8a"/>
      <stop offset="1" stop-color="#a7a7a7"/>
    </linearGradient>
    <linearGradient id="linear-gradient-3" x1="116.2" y1="1904" x2="80.2" y2="1920.8" gradientTransform="translate(0 -1870)" gradientUnits="userSpaceOnUse">
      <stop offset="0" stop-color="#4d4d4d"/>
      <stop offset="1" stop-color="#333"/>
    </linearGradient>
    <linearGradient id="linear-gradient-4" x1="28.4" y1="1922.6" x2="122.6" y2="1922.6" gradientTransform="translate(0 -1870)" gradientUnits="userSpaceOnUse">
      <stop offset="0" stop-color="#999"/>
      <stop offset=".6" stop-color="#c9c9c9"/>
      <stop offset="1" stop-color="#e6e6e6"/>
    </linearGradient>
    <linearGradient id="linear-gradient-5" x1="46.7" y1="-1846.7" x2="46.7" y2="-1901.7" gradientTransform="translate(0 -1804) scale(1 -1)" gradientUnits="userSpaceOnUse">
      <stop offset="0" stop-color="#333"/>
      <stop offset="1" stop-color="#666"/>
    </linearGradient>
    <linearGradient id="linear-gradient-6" x1="46.6" y1="-1906.2" x2="46.6" y2="-1841.9" gradientTransform="translate(0 -1804) scale(1 -1)" gradientUnits="userSpaceOnUse">
      <stop offset="0" stop-color="#999"/>
      <stop offset="1" stop-color="#f2f2f2"/>
    </linearGradient>
    <linearGradient id="linear-gradient-7" x1="46.5" y1="-1928.7" x2="46.5" y2="-1920.5" gradientTransform="translate(0 -1804) scale(1 -1)" gradientUnits="userSpaceOnUse">
      <stop offset="0" stop-color="gray"/>
      <stop offset="1" stop-color="gray"/>
    </linearGradient>
    <linearGradient id="linear-gradient-8" x1="47" y1="-1855.1" x2="46.9" y2="-1904.5" gradientTransform="translate(0 -1804) scale(1 -1)" gradientUnits="userSpaceOnUse">
      <stop offset="0" stop-color="#bfbfbf"/>
      <stop offset="1" stop-color="#545454"/>
    </linearGradient>
  </defs>
  <g>
    <circle class="cls-3" cx="76.4" cy="52.6" r="47.3"/>
    <path class="cls-11" d="M107.1,88.2c8.4-7.3,13.4-16.9,15.5-27,.2-.7-.2-1.2-.9-1.4l-44.3-7c-.7-.2-1.2-.9-.7-1.6l22.5-38.4c.2-.5.2-1.2-.5-1.6-16.9-9.4-38.9-7.3-54.1,6.3-19.5,16.9-21.3,47.1-4.5,66.6,17.6,19.2,46.9,21.1,67,4.2h0Z"/>
    <path class="cls-4" d="M108.8,23.5c-.9-1.6-2.6-2.8-3.7-3.8-.5-.5-1.2-.2-1.4.2l-20.9,28.6c-.5.7,0,1.4.7,1.4l34.5,1.2c.5,0,.9-.5.9-.9,0-9.4-3.3-19.2-10.1-26.7Z"/>
    <rect class="cls-9" y="-21" width="150" height="150"/>
  </g>
  <g class="cls-18">
    <circle class="cls-12" cx="76.4" cy="52.6" r="47.3"/>
    <path class="cls-15" d="M107.1,88.2c8.4-7.3,13.4-16.9,15.5-27,.2-.7-.2-1.2-.9-1.4l-44.3-7c-.7-.2-1.2-.9-.7-1.6l22.5-38.4c.2-.5.2-1.2-.5-1.6-16.9-9.4-38.9-7.3-54.1,6.3-19.5,16.9-21.3,47.1-4.5,66.6,17.6,19.2,46.9,21.1,67,4.2h0Z"/>
    <path class="cls-4" d="M108.8,23.5c-.9-1.6-2.6-2.8-3.7-3.8-.5-.5-1.2-.2-1.4.2l-20.9,28.6c-.5.7,0,1.4.7,1.4l34.5,1.2c.5,0,.9-.5.9-.9,0-9.4-3.3-19.2-10.1-26.7Z"/>
    <rect class="cls-9" y="-21" width="150" height="150"/>
  </g>
  <g>
    <rect class="cls-9" x="-8.2" y="25.8" width="110.1" height="110.1"/>
    <g>
      <rect class="cls-6" x="37.9" y="104.2" width="16.9" height="13.1"/>
      <path class="cls-13" d="M33.2,98.1c0,4.6,5.8,8.3,13.2,8.3s13.2-3.8,13.2-8.3h-26.5Z"/>
      <rect class="cls-8" x="8" y="42" width="77.4" height="56.1"/>
      <path class="cls-5" d="M84.2,44.9v50.2c0,.9-.7,1.7-1.7,1.7H10.7c-.9,0-1.7-.7-1.7-1.7v-50.2c0-.9.7-1.7,1.7-1.7h71.7c1,0,1.7.9,1.7,1.7ZM87.8,37.9H5.4c-.9,0-1.7.7-1.7,1.7v60.9c0,.9.7,1.7,1.7,1.7h82.4c.9,0,1.7-.7,1.7-1.7v-60.9c0-1-.7-1.7-1.7-1.7Z"/>
      <path class="cls-10" d="M71.4,123.9c0-4.6-11.2-8.8-24.9-8.8s-25.1,4.1-25.1,8.8h50Z"/>
      <path class="cls-2" d="M71.4,124.5c.5-4.8-11.2-8.3-24.9-8.3s-25.5,3.6-24.9,8.3h49.9Z"/>
    </g>
    <path class="cls-7" d="M75.4,73.6c-2.4-6.9-7.9-19.4-12.9-19.4-7.9,0-7.9,2.2-10.8,2.2h-9.5c-2.9,0-2.9-2.2-10.8-2.2s-10.5,12.4-12.9,19.4c-4.5,13.4-5,19.4,4.5,19.4s10.5-8.8,23.9-8.8,13.9,8.8,23.9,8.8,9.1-6,4.6-19.4ZM56.8,63.3c1.4-.9,2.9-1.4,4.6-1.4-1.5-.2-3.3.3-4.6,1.4ZM63,61.9c-.3,0-.7-.2-1.2-.2h0c.5,0,.9,0,1.2.2ZM56,64h0ZM52.7,70v.7-.7ZM52.7,71.1c0,4.8,4,8.8,8.8,8.9-5,0-8.8-4-8.8-8.9ZM70.9,72.8c-.3,2.4-1.7,4.3-3.8,5.7,2.2-1.5,3.6-4.1,3.8-7.1v1.4Z"/>
    <g>
      <circle class="cls-14" cx="61.8" cy="67.3" r="9.1"/>
      <path class="cls-1" d="M75.4,70c-2.4-6.9-7.9-19.4-12.9-19.4-7.9,0-7.9,2.2-10.8,2.2h-9.5c-2.9,0-2.9-2.2-10.8-2.2s-10.5,12.4-12.9,19.4c-4.5,13.4-5,19.4,4.5,19.4s10.5-8.8,23.9-8.8,13.8,8.8,23.7,8.8,9.3-6,4.8-19.4ZM40.8,68.6h-4.5c-.5,0-.9.3-.9.9v4.1c0,.5-.3.9-.9.9h-2.4c-.5,0-.9-.3-.9-.9v-4.1c0-.5-.3-.9-.9-.9h-4.1c-.5,0-.9-.3-.9-.9v-2.4c0-.5.3-.9.9-.9h4.1c.5,0,.9-.3.9-.9v-4.5c0-.5.3-.9.9-.9h2.6c.5,0,.9.3.9.9v4.5c0,.5.3.9.9.9h4.5c.5,0,.9.3.9.9v2.4c-.2.5-.5.9-1,.9ZM66.4,75.2c-7.2,3.8-14.4-1.7-13.8-8.8.5-4.6,4.5-8.6,9.1-8.4,5.3.2,10,4.8,8.9,11-.3,2.8-2.1,5-4.3,6.2Z"/>
      <circle class="cls-17" cx="61.8" cy="63.1" r="2.2"/>
      <circle class="cls-17" cx="66.3" cy="67.6" r="2.2"/>
      <circle class="cls-17" cx="57.5" cy="67.6" r="2.2"/>
      <circle class="cls-17" cx="61.8" cy="71.4" r="2.2"/>
      <path class="cls-16" d="M40.8,68.6h-4.5c-.5,0-.9.3-.9.9v4.1c0,.5-.3.9-.9.9h-2.4c-.5,0-.9-.3-.9-.9v-4.1c0-.5-.3-.9-.9-.9h-4.1c-.5,0-.9-.3-.9-.9v-2.4c0-.5.3-.9.9-.9h4.1c.5,0,.9-.3.9-.9v-4.5c0-.5.3-.9.9-.9h2.6c.5,0,.9.3.9.9v4.5c0,.5.3.9.9.9h4.5c.5,0,.9.3.9.9v2.4c-.2.5-.5.9-1,.9Z"/>
    </g>
  </g>
</svg>