<?xml version="1.0" encoding="UTF-8"?>
<svg id="Layer_1" data-name="Layer 1" xmlns="http://www.w3.org/2000/svg" version="1.1" xmlns:xlink="http://www.w3.org/1999/xlink" viewBox="0 0 128 128">
  <defs>
    <style>
      .cls-1 {
        fill: url(#linear-gradient);
      }

      .cls-1, .cls-2, .cls-3 {
        stroke-width: 0px;
      }

      .cls-2 {
        fill: url(#linear-gradient-6);
      }

      .cls-4 {
        stroke: #fff;
      }

      .cls-4, .cls-5, .cls-6, .cls-7 {
        fill: none;
      }

      .cls-4, .cls-6, .cls-7, .cls-8 {
        stroke-miterlimit: 333.3;
        stroke-width: 2.12px;
      }

      .cls-5 {
        stroke: url(#New_Gradient_Swatch_1);
        stroke-linecap: round;
        stroke-linejoin: round;
        stroke-width: 5px;
      }

      .cls-6 {
        stroke: url(#linear-gradient-4);
      }

      .cls-3 {
        fill: url(#linear-gradient-7);
      }

      .cls-7 {
        stroke: url(#linear-gradient-5);
      }

      .cls-8 {
        fill: url(#linear-gradient-2);
        stroke: url(#linear-gradient-3);
      }
    </style>
    <linearGradient id="New_Gradient_Swatch_1" data-name="New Gradient Swatch 1" x1="11.5" y1="46.28" x2="116.5" y2="46.28" gradientUnits="userSpaceOnUse">
      <stop offset="0" stop-color="#999"/>
      <stop offset="1" stop-color="#f2f2f2"/>
    </linearGradient>
    <linearGradient id="linear-gradient" x1=".79" y1="-1835" x2="27.76" y2="-1835" gradientTransform="translate(0 -1740) scale(1 -1)" gradientUnits="userSpaceOnUse">
      <stop offset="0" stop-color="#999"/>
      <stop offset="1" stop-color="#f2f2f2"/>
    </linearGradient>
    <linearGradient id="linear-gradient-2" x1="102.61" y1="-575.32" x2="125.98" y2="-575.32" gradientTransform="translate(0 672)" gradientUnits="userSpaceOnUse">
      <stop offset="0" stop-color="#999"/>
      <stop offset="1" stop-color="#f2f2f2"/>
    </linearGradient>
    <linearGradient id="linear-gradient-3" x1="101.55" y1="-574.99" x2="127.04" y2="-574.99" xlink:href="#linear-gradient-2"/>
    <linearGradient id="linear-gradient-4" x1="101.54" y1="41.87" x2="113.22" y2="41.87" gradientTransform="translate(0 130) scale(1 -1)" xlink:href="#linear-gradient-2"/>
    <linearGradient id="linear-gradient-5" x1="105.78" y1="-583.87" x2="108.97" y2="-583.87" xlink:href="#linear-gradient-2"/>
    <linearGradient id="linear-gradient-6" x1="51.47" y1="2029" x2="76.75" y2="2029" gradientTransform="translate(0 -1934)" xlink:href="#linear-gradient-2"/>
    <linearGradient id="linear-gradient-7" x1="-3806.67" y1="-1899.19" x2="-3801.61" y2="-1899.19" gradientTransform="translate(3868.2 -1804.2) scale(1 -1)" xlink:href="#linear-gradient-2"/>
  </defs>
  <path class="cls-5" d="M64,76.53V16.03M114,76.53v-30H14v30"/>
  <path class="cls-1" d="M16.61,87.3c-.87.28-1.8.62-2.5,1.01-1.38.7-3.32,1.04-5.31.48-.2.87.45,1.71,1.46,1.69,1.04,0,2.02.67,1.69,1.69-.34,1.04-1.21.62-2.22-.14-1.94-1.49-4.16.03-4.92,1.6,1.49-.62,3.23.28,2.89,1.38-.34,1.26-1.83,1.26-2.95.14-1.6-1.6-2.84-.14-3.96-.34.14.7.93,1.04,1.6,1.04,1.46-.03,1.49,1.01,2.36,1.8,1.01.93,2.28,1.26,3.51.56,2.64-1.38,4.1-.67,3.76.79-.22.96-2.16,1.15-2.89.37-.03,1.46,1.29,2.22,3.29,2.22s2.61.48,4.16,1.15c.93.34,1.94.53,2.95.53,4.58,0,8.26-3.71,8.26-8.26s-3.71-8.26-8.26-8.26-2.02.2-2.89.48h0l-.03.08ZM25.68,95.06c0,2.64-2.14,4.78-4.78,4.78s-4.66-1.29-5.25-1.29c.37-.93,1.04-.79,1.8-.7.34,0,.67-.14.81-.34.14-.14.14-.37.14-.62,0-.53-.45-.96-.96-.96s-.34,0-.48.14c-.67.28-1.26.81-2.56,0-1.12-.67-2.14-.67-2.14-.67,0,0,.96-1.63,2.5-.87.79.45,1.35.34,1.71,0,.22-.2.45-.53.45-.87s0-.2,0-.28v-.14h0c-.2-.37-.56-.67-1.04-.67s-.28,0-.45.11h0s1.26-2.28,5.59-2.28,4.78,2.14,4.78,4.78h-.14v-.11Z"/>
  <g>
    <path class="cls-4" d="M107.02,92.88c.82,2.3,2.07,4.42,3.7,6.24"/>
    <path class="cls-8" d="M102.81,86.71h0c-.13.31-.2.65-.2.99v5.17c0,4.24,3.18,13.79,6.37,13.79,6.11,0,10.56-5.49,12.59-8.57,2.89-.49,4.83-3.23,4.34-6.11s-3.23-4.83-6.11-4.34c-2.56.44-4.43,2.66-4.41,5.26-1.16.57-2.25,1.28-3.23,2.12-1.02,1.11-1.54,2.6-1.42,4.11.03.75.15,1.5.37,2.22"/>
    <circle class="cls-6" cx="107.38" cy="88.13" r="4.78"/>
    <circle class="cls-7" cx="107.38" cy="88.13" r=".53"/>
  </g>
  <g>
    <path class="cls-2" d="M76.07,106.81c-.18,0-.28,0-.36-.1-2.7-1.3-5.46-2.58-8.08-4.06-.1,0-.18-.1-.28-.14h0c-.46-.18-.64-.14-.9.32-.1.18-.22.4-.32.64h0c-.58,1.36-1.18,2.7-1.76,4.02,0,.1,0,.22-.18.32-.22-.46-.46-.9-.64-1.36-.5-1.08-1.04-2.16-1.54-3.26-.04-.14-.14-.28-.22-.4h0c-.22-.32-.46-.4-.82-.28-.18.1-.32.14-.46.22h0c-2.62,1.4-5.28,2.8-7.94,4.2h-.18s0,0,0,0h0c-.1-.1,0-.18,0-.28,1.26-2.76,2.52-5.5,4.06-8.18,0,0,.1-.14.1-.18.22-.54.1-.9-.46-1.12-.5-.22-1-.4-1.48-.64-1.08-.5-2.16-1-3.2-1.48,0-.18.18-.18.32-.22,1.4-.68,2.8-1.3,4.2-1.98.04,0,.14-.04.18-.1.64-.32.72-.58.36-1.22-.82-1.48-1.62-3.02-2.4-4.52-.64-1.18-1.22-2.4-1.86-3.56,0-.1-.14-.14-.1-.28.14,0,.22,0,.32.1,2.76,1.3,5.5,2.62,8.12,4.1h0c.68.36.9.28,1.26-.4.68-1.44,1.3-2.94,1.98-4.38.04-.14.1-.28.22-.4.28.58.54,1.22.82,1.8.4.94.86,1.86,1.26,2.8,0,.04,0,.1.1.18.36.72.58.82,1.3.4,2.62-1.48,5.32-2.84,8-4.2.1,0,.14-.1.22-.1,0,.14,0,.22-.1.32-1.26,2.76-2.52,5.5-4.02,8.12h0c-.36.68-.28.9.4,1.22,1.48.68,2.94,1.4,4.38,2.12l.22.14c0,.18-.22.18-.36.22-1.36.64-2.76,1.22-4.1,1.86-.86.4-.94.64-.5,1.44,1.48,2.66,2.88,5.42,4.24,8.18h.1l.04.1h.06v.02ZM57.51,88.43s0-.1-.1,0,0,.04,0,.04c0,.28.18.46.32.68.76,1.48,1.54,2.94,2.3,4.42-1,.5-2.04.94-3.08,1.44,1.04.54,2.08,1,3.12,1.44-.94,1.72-1.76,3.44-2.52,5.2h.1c1.68-.82,3.34-1.72,5.06-2.58l1.48,3.16,1.4-3.16c1.72.94,3.44,1.76,5.24,2.58v-.14h0c-.76-1.58-1.58-3.16-2.44-4.7-.14-.22,0-.36.18-.46.68-.32,1.3-.58,1.98-.9.22-.1.5-.18.72-.36l-3.02-1.48c.94-1.72,1.8-3.48,2.62-5.24-1.76.86-3.48,1.72-5.2,2.66l-1.44-3.2c-.5,1.08-1,2.16-1.44,3.2-1.54-.86-3.08-1.58-4.6-2.3-.18-.1-.36-.22-.54-.22h0l-.14-.1h0v.02Z"/>
    <path class="cls-3" d="M64.11,97.51c1.4,0,2.52-1.12,2.52-2.52s-1.12-2.52-2.52-2.52-2.52,1.12-2.52,2.52h0c0,1.4,1.12,2.52,2.52,2.52h0ZM64.79,95.03c0,.4-.32.68-.72.68s-.72-.32-.72-.72h0c0-.4.32-.72.72-.72s0,0,0,0h0c.36,0,.68.36.68.72h0l.04.04Z"/>
  </g>
</svg>