<?xml version="1.0" encoding="UTF-8"?>
<svg xmlns="http://www.w3.org/2000/svg" version="1.1" xmlns:xlink="http://www.w3.org/1999/xlink" viewBox="0 0 800 800">
  <defs>
    <style>
      .cls-1 {
        fill: url(#linear-gradient-2);
      }

      .cls-2 {
        fill: url(#linear-gradient);
      }
    </style>
    <linearGradient id="linear-gradient" x1="53.2" y1="400" x2="746.7" y2="400" gradientTransform="translate(0 800) scale(1 -1)" gradientUnits="userSpaceOnUse">
      <stop offset="0" stop-color="#999"/>
      <stop offset="1" stop-color="#f2f2f2"/>
    </linearGradient>
    <linearGradient id="linear-gradient-2" x1="277.4" y1="352.1" x2="329.8" y2="352.1" gradientTransform="translate(0 800) scale(1 -1)" gradientUnits="userSpaceOnUse">
      <stop offset="0" stop-color="#999"/>
      <stop offset="1" stop-color="#f2f2f2"/>
    </linearGradient>
  </defs>
  <!-- Generator: Adobe Illustrator 28.6.0, SVG Export Plug-In . SVG Version: 1.2.0 Build 709)  -->
  <g>
    <g id="Layer_1">
      <g id="Layer_1-2" data-name="Layer_1">
        <g>
          <path class="cls-2" d="M742.8,49.1c5.2-5.2,5.2-13.6,0-18.8-5.2-5.2-13.6-5.2-18.8,0l-4.9,4.9-6.3-6.3c-5.2-5.2-13.6-5.2-18.8,0-5.2,5.2-5.2,13.6,0,18.8l6.3,6.3-88.2,88.2-32.2-14.6c-5.1-2.2-11-1.2-14.9,2.7l-80.9,80.9-.5-.5c-5.2-5.2-13.6-5.2-18.8,0l-242.9,242.9c-2.5,2.5-3.9,5.9-3.9,9.4v27.2l-38.3,73.6-29.2,9.7c-2.5.8-4.7,2.4-6.4,4.5l-88,114.4c-2.2,3-3.2,6.7-2.5,10.5.7,3.7,2.9,6.9,6.1,8.9l98.9,61.2c2.2,1.3,4.6,2,7,2s2.6-.2,3.9-.6c3.7-1.1,6.7-3.7,8.2-7.3l96.4-216.2,16.9,7.9c7.5,3.5,13.4,9.7,16.6,17.2l28.2,67c1.4,3.3,3.9,5.8,7.2,7.1,1.6.7,3.3.9,5,.9s3.6-.4,5.2-1l50.4-21.4c6.2-2.6,9.5-9.5,7.6-15.9l-28.2-97.5,49.7-49.7c24,15.1,50.2,26.6,77.7,33.9,23.8,6.3,48.3,9.5,72.8,9.5s46.4-2.8,69.1-8.5c6.7-1.7,11.1-8.3,9.8-15.2l-14.1-81.1c-.7-3.7-2.8-7-6-9s-7.1-2.5-10.7-1.5c-58.4,16.8-121.1,1.8-165.5-39.1l4.1-19.3,59.8-59.9c2.5-2.5,3.9-5.9,3.9-9.4s-.6-4.4-1.6-6.3l92.3-92.3,118.4-118.4h0ZM159.6,742.4l-73.5-45.5,76.6-99.5,30.5-10.1c3.3-1.1,6-3.4,7.6-6.5l33.9-65.2,17.9,17.9-93,208.8ZM274.1,517.5l-29.5-29.5v-19.5h0l167.1-167.1,31.6,31.6-4.1,19.5-165,165h0ZM378.1,482.6l-10,10-15.7-15.7,10-10,15.7,15.7ZM355.1,620.4l-23.1-54.7c-5.8-13.8-16.4-24.7-29.9-31l-5.2-2.3,36.6-36.6,22.7,22.7,26.2,90.4-27.3,11.6h0ZM396.9,463.7l-15.7-15.7,12.3-12.3c5.5,5.1,11.2,9.8,17.1,14.3l-13.7,13.7h0ZM624.3,422.8l9.5,54.7c-38.5,7.7-78.6,6.5-116.5-3.6-39-10.3-75-29.9-105-56.9l39.3-39.3c47.2,41.3,111.3,58.1,172.8,45.2h0ZM457.7,309.9l-27.3-27.3,42.9-42.9c.2.2.3.4.5.6l26.7,26.7-42.9,42.9h0ZM513.7,240.6l-10.7-10.7,74.3-74.3,14.7,6.7-78.4,78.4h0Z"/>
          <path class="cls-1" d="M325.8,425.6c-5.2-5.2-13.6-5.2-18.8,0l-25.7,25.7c-5.2,5.2-5.2,13.6,0,18.8,2.6,2.6,6,3.9,9.4,3.9s6.8-1.3,9.4-3.9l25.7-25.7c5.2-5.2,5.2-13.6,0-18.8h0Z"/>
        </g>
      </g>
    </g>
  </g>
</svg>