<?xml version="1.0" encoding="UTF-8"?>
<svg xmlns="http://www.w3.org/2000/svg" version="1.1" xmlns:xlink="http://www.w3.org/1999/xlink" viewBox="0 0 800 800">
  <defs>
    <style>
      .cls-1 {
        fill: url(#linear-gradient-2);
      }

      .cls-2 {
        fill: url(#linear-gradient-4);
      }

      .cls-3 {
        fill: url(#linear-gradient-3);
      }

      .cls-4 {
        fill: url(#linear-gradient-5);
      }

      .cls-5 {
        fill: url(#linear-gradient-8);
      }

      .cls-6 {
        fill: url(#linear-gradient-7);
      }

      .cls-7 {
        fill: url(#linear-gradient-6);
      }

      .cls-8 {
        fill: url(#linear-gradient);
      }
    </style>
    <linearGradient id="linear-gradient" x1="53.2" y1="-352" x2="746.7" y2="-352" gradientTransform="translate(0 752)" gradientUnits="userSpaceOnUse">
      <stop offset="0" stop-color="#999"/>
      <stop offset="1" stop-color="#f2f2f2"/>
    </linearGradient>
    <linearGradient id="linear-gradient-2" x1="277.4" y1="-304.1" x2="329.8" y2="-304.1" gradientTransform="translate(0 752)" gradientUnits="userSpaceOnUse">
      <stop offset="0" stop-color="#999"/>
      <stop offset="1" stop-color="#f2f2f2"/>
    </linearGradient>
    <linearGradient id="linear-gradient-3" x1="105.9" y1="612.9" x2="242.5" y2="612.9" gradientTransform="translate(0 800) scale(1 -1)" gradientUnits="userSpaceOnUse">
      <stop offset="0" stop-color="#999"/>
      <stop offset="1" stop-color="#f2f2f2"/>
    </linearGradient>
    <linearGradient id="linear-gradient-4" x1="577.1" y1="507.4" x2="640.4" y2="507.4" gradientTransform="translate(0 800) scale(1 -1)" gradientUnits="userSpaceOnUse">
      <stop offset="0" stop-color="#999"/>
      <stop offset="1" stop-color="#f2f2f2"/>
    </linearGradient>
    <linearGradient id="linear-gradient-5" x1="452" y1="154.4" x2="548.9" y2="154.4" gradientTransform="translate(0 800) scale(1 -1)" gradientUnits="userSpaceOnUse">
      <stop offset="0" stop-color="#999"/>
      <stop offset="1" stop-color="#f2f2f2"/>
    </linearGradient>
    <linearGradient id="linear-gradient-6" x1="673.2" y1="263.9" x2="718.6" y2="263.9" gradientTransform="translate(0 800) scale(1 -1)" gradientUnits="userSpaceOnUse">
      <stop offset="0" stop-color="#999"/>
      <stop offset="1" stop-color="#f2f2f2"/>
    </linearGradient>
    <linearGradient id="linear-gradient-7" x1="339" y1="688" x2="425.6" y2="688" gradientTransform="translate(0 800) scale(1 -1)" gradientUnits="userSpaceOnUse">
      <stop offset="0" stop-color="#999"/>
      <stop offset="1" stop-color="#f2f2f2"/>
    </linearGradient>
    <linearGradient id="linear-gradient-8" x1="79.6" y1="1617.7" x2="132.8" y2="1617.7" gradientTransform="translate(0 -1182)" gradientUnits="userSpaceOnUse">
      <stop offset="0" stop-color="#999"/>
      <stop offset="1" stop-color="#f2f2f2"/>
    </linearGradient>
  </defs>
  <!-- Generator: Adobe Illustrator 28.6.0, SVG Export Plug-In . SVG Version: 1.2.0 Build 709)  -->
  <g>
    <g id="Layer_1">
      <g id="Layer_1-2" data-name="Layer_1">
        <g id="Layer_1-2">
          <g>
            <path class="cls-8" d="M742.8,49.1c5.2-5.2,5.2-13.6,0-18.8-5.2-5.2-13.6-5.2-18.8,0l-4.9,4.9-6.3-6.3c-5.2-5.2-13.6-5.2-18.8,0-5.2,5.2-5.2,13.6,0,18.8l6.3,6.3-88.2,88.2-32.2-14.6c-5.1-2.2-11-1.2-14.9,2.7l-80.9,80.9-.5-.5c-5.2-5.2-13.6-5.2-18.8,0l-242.9,242.9c-2.5,2.5-3.9,5.9-3.9,9.4v27.2l-38.3,73.6-29.2,9.7c-2.5.8-4.7,2.4-6.4,4.5l-88,114.4c-2.2,3-3.2,6.7-2.5,10.5.7,3.7,2.9,6.9,6.1,8.9l98.9,61.2c2.2,1.3,4.6,2,7,2s2.6-.2,3.9-.6c3.7-1.1,6.7-3.7,8.2-7.3l96.4-216.2,16.9,7.9c7.5,3.5,13.4,9.7,16.6,17.2l28.2,67c1.4,3.3,3.9,5.8,7.2,7.1,1.6.7,3.3.9,5,.9s3.6-.4,5.2-1l50.4-21.4c6.2-2.6,9.5-9.5,7.6-15.9l-28.2-97.5,49.7-49.7c24,15.1,50.2,26.6,77.7,33.9,23.8,6.3,48.3,9.5,72.8,9.5s46.4-2.8,69.1-8.5c6.7-1.7,11.1-8.3,9.8-15.2l-14.1-81.1c-.7-3.7-2.8-7-6-9s-7.1-2.5-10.7-1.5c-58.4,16.8-121.1,1.8-165.5-39.1l4.1-19.3,59.8-59.9c2.5-2.5,3.9-5.9,3.9-9.4s-.6-4.4-1.6-6.3l92.3-92.3,118.4-118.4h0ZM159.6,742.4l-73.5-45.5,76.6-99.5,30.5-10.1c3.3-1.1,6-3.4,7.6-6.5l33.9-65.2,17.9,17.9-93,208.8ZM274.1,517.5l-29.5-29.5v-19.5h0l167.1-167.1,31.6,31.6-4.1,19.5-165,165h0ZM378.1,482.6l-10,10-15.7-15.7,10-10,15.7,15.7ZM355.1,620.4l-23.1-54.7c-5.8-13.8-16.4-24.7-29.9-31l-5.2-2.3,36.6-36.6,22.7,22.7,26.2,90.4-27.3,11.6h0ZM396.9,463.7l-15.7-15.7,12.3-12.3c5.5,5.1,11.2,9.8,17.1,14.3l-13.7,13.7h0ZM624.3,422.8l9.5,54.7c-38.5,7.7-78.6,6.5-116.5-3.6-39-10.3-75-29.9-105-56.9l39.3-39.3c47.2,41.3,111.3,58.1,172.8,45.2h0ZM457.7,309.9l-27.3-27.3,42.9-42.9c.2.2.3.4.5.6l26.7,26.7-42.9,42.9h0ZM513.7,240.6l-10.7-10.7,74.3-74.3,14.7,6.7-78.4,78.4h0Z"/>
            <path class="cls-1" d="M325.8,425.6c-5.2-5.2-13.6-5.2-18.8,0l-25.7,25.7c-5.2,5.2-5.2,13.6,0,18.8,2.6,2.6,6,3.9,9.4,3.9s6.8-1.3,9.4-3.9l25.7-25.7c5.2-5.2,5.2-13.6,0-18.8h0Z"/>
          </g>
        </g>
        <path class="cls-3" d="M237.7,195c6.4-3.2,6.4-12.7,0-15.8l-37-18.6-18.6-37c-1.8-3.2-5-5-7.7-5s-6.4,1.8-7.7,5l-18.6,37-37,18.6c-6.4,3.2-6.4,12.7,0,15.8l37,18.6,18.6,37c1.8,3.2,5,5,7.7,5s6.4-1.8,7.7-5l18.6-37,37-18.6Z"/>
        <path class="cls-2" d="M636.6,287.1l-15.9-6.4-6.4-15.9c-.9-2.4-3.4-3.7-5.4-3.7s-4.6,1.2-5.4,3.7l-6.4,15.9-15.9,6.4c-5,2.2-5,9.1,0,11l15.9,6.4,6.4,15.9c.9,2.4,3.4,3.7,5.4,3.7s4.6-1.2,5.4-3.7l6.4-15.9,15.9-6.4c5-2.2,5-9.1,0-11h0Z"/>
        <path class="cls-4" d="M543.1,637.2l-24.4-9.8-9.8-24.4c-1.4-3.7-5.2-5.5-8.4-5.5s-6.9,1.9-8.4,5.5l-9.8,24.4-24.4,9.8c-7.6,3.3-7.6,14,0,16.8l24.4,9.8,9.8,24.4c1.4,3.7,5.2,5.5,8.4,5.5s6.9-1.9,8.4-5.5l9.8-24.4,24.4-9.8c7.6-3.3,7.6-14,0-16.8Z"/>
        <path class="cls-7" d="M716.4,532.2l-11-5.7-5.7-11c-1-1.5-2.3-2.3-3.7-2.3s-2.9,1-3.7,2.3l-5.7,11-11,5.7c-2.9,1.5-2.9,5.7,0,7.8l11,5.7,5.7,11c1,1.5,2.3,2.3,3.7,2.3s2.9-1,3.7-2.3l5.7-11,11-5.7c2.9-1.5,2.9-5.7,0-7.8Z"/>
        <path class="cls-6" d="M343.4,119.4l20.9,10.9,10.9,20.9c2,2.8,4.4,4.4,7.2,4.4s5.6-2,7.2-4.4l10.9-20.9,20.9-10.9c5.6-2.8,5.6-10.9,0-14.9l-20.9-10.9-10.9-20.9c-2-2.8-4.4-4.4-7.2-4.4s-5.6,2-7.2,4.4l-10.9,20.9-20.9,10.9c-5.6,2.8-5.6,10.9,0,14.9h0Z"/>
        <path class="cls-5" d="M130.3,431.1l-12.8-6.7-6.7-12.8c-1.2-1.7-2.7-2.7-4.4-2.7s-3.5,1.2-4.4,2.7l-6.7,12.8-12.8,6.7c-3.5,1.7-3.5,6.7,0,9.1l12.8,6.7,6.7,12.8c1.2,1.7,2.7,2.7,4.4,2.7s3.5-1.2,4.4-2.7l6.7-12.8,12.8-6.7c3.5-1.7,3.5-6.7,0-9.1Z"/>
      </g>
    </g>
  </g>
</svg>