<?xml version="1.0" encoding="UTF-8"?>
<svg id="Layer_1" data-name="Layer 1" xmlns="http://www.w3.org/2000/svg" version="1.1" xmlns:xlink="http://www.w3.org/1999/xlink" viewBox="0 0 128 128">
  <defs>
    <style>
      .cls-1 {
        stroke: url(#linear-gradient);
        stroke-linecap: round;
        stroke-linejoin: round;
        stroke-width: 5px;
      }

      .cls-1, .cls-2 {
        fill: none;
      }

      .cls-3 {
        fill: url(#linear-gradient-3);
      }

      .cls-3, .cls-4, .cls-2, .cls-5, .cls-6, .cls-7 {
        stroke-width: 0px;
      }

      .cls-3, .cls-4, .cls-8, .cls-5, .cls-7 {
        fill-rule: evenodd;
      }

      .cls-4 {
        fill: #000;
        isolation: isolate;
        opacity: .3;
      }

      .cls-8 {
        fill: #e5e5e5;
      }

      .cls-8, .cls-9 {
        stroke: #bfbfbf;
        stroke-miterlimit: 10;
        stroke-width: .2px;
      }

      .cls-5 {
        fill: url(#linear-gradient-2);
      }

      .cls-9 {
        fill: #fff;
      }

      .cls-6 {
        fill: #7f7f7f;
      }

      .cls-7 {
        fill: url(#linear-gradient-4);
      }
    </style>
    <linearGradient id="linear-gradient" x1="11.5" y1="81.7" x2="116.5" y2="81.7" gradientTransform="translate(0 128) scale(1 -1)" gradientUnits="userSpaceOnUse">
      <stop offset="0" stop-color="#999"/>
      <stop offset="1" stop-color="#f2f2f2"/>
    </linearGradient>
    <linearGradient id="linear-gradient-2" x1="14.1" y1="2014.8" x2="14" y2="2035" gradientTransform="translate(0 -1932)" gradientUnits="userSpaceOnUse">
      <stop offset="0" stop-color="#bfbfbf"/>
      <stop offset="1" stop-color="#545454"/>
    </linearGradient>
    <linearGradient id="linear-gradient-3" x1="64.1" x2="64" xlink:href="#linear-gradient-2"/>
    <linearGradient id="linear-gradient-4" x1="114.1" x2="114" xlink:href="#linear-gradient-2"/>
  </defs>
  <path class="cls-1" d="M64,76.5V16M114,76.5v-30H14v30"/>
  <g>
    <rect class="cls-2" x="-8.5" y="72.5" width="45" height="45"/>
    <path class="cls-4" d="M25.7,92c-1-2.8-3.2-7.9-5.3-7.9-3.2,0-3.2.9-4.4.9h-3.9c-1.2,0-1.2-.9-4.4-.9s-4.3,5.1-5.3,7.9c-1.8,5.5-2,7.9,1.8,7.9s4.3-3.6,9.8-3.6,5.7,3.6,9.8,3.6,3.7-2.5,1.9-7.9ZM18.1,87.8c.6-.4,1.2-.6,1.9-.6-.6,0-1.3.1-1.9.6ZM20.6,87.3c-.1,0-.3,0-.5,0h0c.2,0,.4,0,.5,0ZM17.7,88.1h0ZM16.4,90.6v.3-.3ZM16.4,91c0,2,1.6,3.6,3.6,3.6-2,0-3.6-1.6-3.6-3.6ZM23.8,91.7c-.1,1-.7,1.8-1.6,2.3.9-.6,1.5-1.7,1.6-2.9v.6Z"/>
    <g>
      <circle class="cls-6" cx="20.1" cy="89.5" r="3.7"/>
      <path class="cls-5" d="M25.7,90.6c-1-2.8-3.2-7.9-5.3-7.9-3.2,0-3.2.9-4.4.9h-3.9c-1.2,0-1.2-.9-4.4-.9s-4.3,5.1-5.3,7.9c-1.8,5.5-2,7.9,1.8,7.9s4.3-3.6,9.8-3.6,5.6,3.6,9.7,3.6,3.8-2.5,2-7.9ZM11.5,90h-1.8c-.2,0-.4.1-.4.4v1.7c0,.2-.1.4-.4.4h-1c-.2,0-.4-.1-.4-.4v-1.7c0-.2-.1-.4-.4-.4h-1.7c-.2,0-.4-.1-.4-.4v-1c0-.2.1-.4.4-.4h1.7c.2,0,.4-.1.4-.4v-1.8c0-.2.1-.4.4-.4h1.1c.2,0,.4.1.4.4v1.8c0,.2.1.4.4.4h1.8c.2,0,.4.1.4.4v1c0,.2-.2.4-.4.4h0ZM22,92.7c-2.9,1.6-5.9-.7-5.6-3.6.2-1.9,1.8-3.5,3.7-3.4,2.2,0,4.1,2,3.6,4.5-.1,1.1-.9,2-1.8,2.5h0Z"/>
      <circle class="cls-9" cx="20.1" cy="87.7" r=".9"/>
      <circle class="cls-9" cx="21.9" cy="89.6" r=".9"/>
      <circle class="cls-9" cx="18.4" cy="89.6" r=".9"/>
      <circle class="cls-9" cx="20.1" cy="91.1" r=".9"/>
      <path class="cls-8" d="M11.5,90h-1.8c-.2,0-.4.1-.4.4v1.7c0,.2-.1.4-.4.4h-1c-.2,0-.4-.1-.4-.4v-1.7c0-.2-.1-.4-.4-.4h-1.7c-.2,0-.4-.1-.4-.4v-1c0-.2.1-.4.4-.4h1.7c.2,0,.4-.1.4-.4v-1.8c0-.2.1-.4.4-.4h1.1c.2,0,.4.1.4.4v1.8c0,.2.1.4.4.4h1.8c.2,0,.4.1.4.4v1c0,.2-.2.4-.4.4h0Z"/>
    </g>
  </g>
  <g>
    <rect class="cls-2" x="41.5" y="72.5" width="45" height="45"/>
    <path class="cls-4" d="M75.7,92c-1-2.8-3.2-7.9-5.3-7.9-3.2,0-3.2.9-4.4.9h-3.9c-1.2,0-1.2-.9-4.4-.9s-4.3,5.1-5.3,7.9c-1.8,5.5-2,7.9,1.8,7.9s4.3-3.6,9.8-3.6,5.7,3.6,9.8,3.6,3.7-2.5,1.9-7.9ZM68.1,87.8c.6-.4,1.2-.6,1.9-.6-.6,0-1.3.1-1.9.6ZM70.6,87.3c-.1,0-.3,0-.5,0h0c.2,0,.4,0,.5,0ZM67.7,88.1h0ZM66.4,90.6v.3-.3ZM66.4,91c0,2,1.6,3.6,3.6,3.6-2,0-3.6-1.6-3.6-3.6ZM73.8,91.7c-.1,1-.7,1.8-1.6,2.3.9-.6,1.5-1.7,1.6-2.9v.6Z"/>
    <g>
      <circle class="cls-6" cx="70.1" cy="89.5" r="3.7"/>
      <path class="cls-3" d="M75.7,90.6c-1-2.8-3.2-7.9-5.3-7.9-3.2,0-3.2.9-4.4.9h-3.9c-1.2,0-1.2-.9-4.4-.9s-4.3,5.1-5.3,7.9c-1.8,5.5-2,7.9,1.8,7.9s4.3-3.6,9.8-3.6,5.6,3.6,9.7,3.6,3.8-2.5,2-7.9ZM61.5,90h-1.8c-.2,0-.4.1-.4.4v1.7c0,.2-.1.4-.4.4h-1c-.2,0-.4-.1-.4-.4v-1.7c0-.2-.1-.4-.4-.4h-1.7c-.2,0-.4-.1-.4-.4v-1c0-.2.1-.4.4-.4h1.7c.2,0,.4-.1.4-.4v-1.8c0-.2.1-.4.4-.4h1.1c.2,0,.4.1.4.4v1.8c0,.2.1.4.4.4h1.8c.2,0,.4.1.4.4v1c0,.2-.2.4-.4.4h0ZM72,92.7c-2.9,1.6-5.9-.7-5.6-3.6.2-1.9,1.8-3.5,3.7-3.4,2.2,0,4.1,2,3.6,4.5-.1,1.1-.9,2-1.8,2.5h0Z"/>
      <circle class="cls-9" cx="70.1" cy="87.7" r=".9"/>
      <circle class="cls-9" cx="71.9" cy="89.6" r=".9"/>
      <circle class="cls-9" cx="68.4" cy="89.6" r=".9"/>
      <circle class="cls-9" cx="70.1" cy="91.1" r=".9"/>
      <path class="cls-8" d="M61.5,90h-1.8c-.2,0-.4.1-.4.4v1.7c0,.2-.1.4-.4.4h-1c-.2,0-.4-.1-.4-.4v-1.7c0-.2-.1-.4-.4-.4h-1.7c-.2,0-.4-.1-.4-.4v-1c0-.2.1-.4.4-.4h1.7c.2,0,.4-.1.4-.4v-1.8c0-.2.1-.4.4-.4h1.1c.2,0,.4.1.4.4v1.8c0,.2.1.4.4.4h1.8c.2,0,.4.1.4.4v1c0,.2-.2.4-.4.4h0Z"/>
    </g>
  </g>
  <g>
    <rect class="cls-2" x="91.5" y="72.5" width="45" height="45"/>
    <path class="cls-4" d="M125.7,92c-1-2.8-3.2-7.9-5.3-7.9-3.2,0-3.2.9-4.4.9h-3.9c-1.2,0-1.2-.9-4.4-.9s-4.3,5.1-5.3,7.9c-1.8,5.5-2,7.9,1.8,7.9s4.3-3.6,9.8-3.6,5.7,3.6,9.8,3.6,3.7-2.5,1.9-7.9ZM118.1,87.8c.6-.4,1.2-.6,1.9-.6-.6,0-1.3.1-1.9.6ZM120.6,87.3c-.1,0-.3,0-.5,0h0c.2,0,.4,0,.5,0ZM117.7,88.1h0ZM116.4,90.6v.3-.3ZM116.4,91c0,2,1.6,3.6,3.6,3.6-2,0-3.6-1.6-3.6-3.6ZM123.8,91.7c-.1,1-.7,1.8-1.6,2.3.9-.6,1.5-1.7,1.6-2.9v.6Z"/>
    <g>
      <circle class="cls-6" cx="120.1" cy="89.5" r="3.7"/>
      <path class="cls-7" d="M125.7,90.6c-1-2.8-3.2-7.9-5.3-7.9-3.2,0-3.2.9-4.4.9h-3.9c-1.2,0-1.2-.9-4.4-.9s-4.3,5.1-5.3,7.9c-1.8,5.5-2,7.9,1.8,7.9s4.3-3.6,9.8-3.6,5.6,3.6,9.7,3.6,3.8-2.5,2-7.9ZM111.5,90h-1.8c-.2,0-.4.1-.4.4v1.7c0,.2-.1.4-.4.4h-1c-.2,0-.4-.1-.4-.4v-1.7c0-.2-.1-.4-.4-.4h-1.7c-.2,0-.4-.1-.4-.4v-1c0-.2.1-.4.4-.4h1.7c.2,0,.4-.1.4-.4v-1.8c0-.2.1-.4.4-.4h1.1c.2,0,.4.1.4.4v1.8c0,.2.1.4.4.4h1.8c.2,0,.4.1.4.4v1c0,.2-.2.4-.4.4h0ZM122,92.7c-2.9,1.6-5.9-.7-5.6-3.6.2-1.9,1.8-3.5,3.7-3.4,2.2,0,4.1,2,3.6,4.5-.1,1.1-.9,2-1.8,2.5h0Z"/>
      <circle class="cls-9" cx="120.1" cy="87.7" r=".9"/>
      <circle class="cls-9" cx="121.9" cy="89.6" r=".9"/>
      <circle class="cls-9" cx="118.4" cy="89.6" r=".9"/>
      <circle class="cls-9" cx="120.1" cy="91.1" r=".9"/>
      <path class="cls-8" d="M111.5,90h-1.8c-.2,0-.4.1-.4.4v1.7c0,.2-.1.4-.4.4h-1c-.2,0-.4-.1-.4-.4v-1.7c0-.2-.1-.4-.4-.4h-1.7c-.2,0-.4-.1-.4-.4v-1c0-.2.1-.4.4-.4h1.7c.2,0,.4-.1.4-.4v-1.8c0-.2.1-.4.4-.4h1.1c.2,0,.4.1.4.4v1.8c0,.2.1.4.4.4h1.8c.2,0,.4.1.4.4v1c0,.2-.2.4-.4.4h0Z"/>
    </g>
  </g>
</svg>