<?xml version="1.0" encoding="UTF-8"?>
<svg id="Uploaded_to_svgrepo.com" data-name="Uploaded to svgrepo.com" xmlns="http://www.w3.org/2000/svg" version="1.1" xmlns:xlink="http://www.w3.org/1999/xlink" viewBox="0 0 128 128">
  <defs>
    <style>
      .cls-1 {
        fill: url(#linear-gradient);
        stroke-width: 0px;
      }
    </style>
    <linearGradient id="linear-gradient" x1="8.2" y1="1997.9" x2="119.6" y2="1997.9" gradientTransform="translate(0 -1934)" gradientUnits="userSpaceOnUse">
      <stop offset="0" stop-color="#999"/>
      <stop offset="1" stop-color="#f2f2f2"/>
    </linearGradient>
  </defs>
  <path class="cls-1" d="M74.9,59.5c3.2-1.6,3.2-6.4,0-8l-18.7-9.4-9.4-18.7c-.9-1.6-2.5-2.5-3.9-2.5s-3.2.9-3.9,2.5l-9.4,18.7-18.7,9.4c-3.2,1.6-3.2,6.4,0,8l18.7,9.4,9.4,18.7c.9,1.6,2.5,2.5,3.9,2.5s3.2-.9,3.9-2.5l9.4-18.7s18.7-9.4,18.7-9.4ZM116.8,24.6l-11.9-4.8-4.8-11.9c-.7-1.8-2.5-2.7-4.1-2.7s-3.4.9-4.1,2.7l-4.8,11.9-11.9,4.8c-3.7,1.6-3.7,6.8,0,8.2l11.9,4.8,4.8,11.9c.7,1.8,2.5,2.7,4.1,2.7s3.4-.9,4.1-2.7l4.8-11.9,11.9-4.8c3.7-1.6,3.7-6.8,0-8.2h0ZM94.7,100.3l-11.9-4.8-4.8-11.9c-.7-1.8-2.5-2.7-4.1-2.7s-3.4.9-4.1,2.7l-4.8,11.9-11.9,4.8c-3.7,1.6-3.7,6.8,0,8.2l11.9,4.8,4.8,11.9c.7,1.8,2.5,2.7,4.1,2.7s3.4-.9,4.1-2.7l4.8-11.9,11.9-4.8c3.7-1.6,3.7-6.8,0-8.2ZM114.8,71.4l-5.2-2.7-2.7-5.2c-.5-.7-1.1-1.1-1.8-1.1s-1.4.5-1.8,1.1l-2.7,5.2-5.2,2.7c-1.4.7-1.4,2.7,0,3.7l5.2,2.7,2.7,5.2c.5.7,1.1,1.1,1.8,1.1s1.4-.5,1.8-1.1l2.7-5.2,5.2-2.7c1.4-.7,1.4-2.7,0-3.7ZM50.7,12.7l5.2,2.7,2.7,5.2c.5.7,1.1,1.1,1.8,1.1s1.4-.5,1.8-1.1l2.7-5.2,5.2-2.7c1.4-.7,1.4-2.7,0-3.7l-5.2-2.7-2.7-5.2c-.5-.7-1.1-1.1-1.8-1.1s-1.4.5-1.8,1.1l-2.7,5.2-5.2,2.7c-1.4.7-1.4,2.7,0,3.7h0ZM34.7,102.6l-5.2-2.7-2.7-5.2c-.5-.7-1.1-1.1-1.8-1.1s-1.4.5-1.8,1.1l-2.7,5.2-5.2,2.7c-1.4.7-1.4,2.7,0,3.7l5.2,2.7,2.7,5.2c.5.7,1.1,1.1,1.8,1.1s1.4-.5,1.8-1.1l2.7-5.2,5.2-2.7c1.4-.7,1.4-2.7,0-3.7Z"/>
</svg>