<?xml version="1.0" encoding="UTF-8"?>
<svg id="Layer_1" data-name="Layer 1" xmlns="http://www.w3.org/2000/svg" version="1.1" xmlns:xlink="http://www.w3.org/1999/xlink" viewBox="0 0 128 128">
  <defs>
    <style>
      .cls-1 {
        fill: url(#linear-gradient);
      }

      .cls-1, .cls-2 {
        stroke-width: 0px;
      }

      .cls-2 {
        fill: url(#linear-gradient-2);
      }
    </style>
    <linearGradient id="linear-gradient" x1="1" y1="1997.9" x2="127.4" y2="1997.9" gradientTransform="translate(0 -1934)" gradientUnits="userSpaceOnUse">
      <stop offset="0" stop-color="#999"/>
      <stop offset="1" stop-color="#f2f2f2"/>
    </linearGradient>
    <linearGradient id="linear-gradient-2" x1="-3816.9" y1="-1870" x2="-3791.6" y2="-1870" gradientTransform="translate(-3739.8 -1806.2) rotate(-180)" gradientUnits="userSpaceOnUse">
      <stop offset="0" stop-color="#999"/>
      <stop offset="1" stop-color="#f2f2f2"/>
    </linearGradient>
  </defs>
  <path class="cls-1" d="M124,123c-.9,0-1.4,0-1.8-.5-13.5-6.5-27.3-12.9-40.4-20.3-.5,0-.9-.5-1.4-.7h0c-2.3-.9-3.2-.7-4.5,1.6-.5.9-1.1,2-1.6,3.2h0c-2.9,6.8-5.9,13.5-8.8,20.1,0,.5,0,1.1-.9,1.6-1.1-2.3-2.3-4.5-3.2-6.8-2.5-5.4-5.2-10.8-7.7-16.3-.2-.7-.7-1.4-1.1-2h0c-1.1-1.6-2.3-2-4.1-1.4-.9.5-1.6.7-2.3,1.1h0c-13.1,7-26.4,14-39.7,21h-.9c-.2,0,0,0,0,0h0c-.5-.5,0-.9,0-1.4,6.3-13.8,12.6-27.5,20.3-40.9,0,0,.5-.7.5-.9,1.1-2.7.5-4.5-2.3-5.6-2.5-1.1-5-2-7.4-3.2-5.4-2.5-10.8-5-16-7.4,0-.9.9-.9,1.6-1.1,7-3.4,14-6.5,21-9.9.2,0,.7-.2.9-.5,3.2-1.6,3.6-2.9,1.8-6.1-4.1-7.4-8.1-15.1-12-22.6-3.2-5.9-6.1-12-9.3-17.8,0-.5-.7-.7-.5-1.4.7,0,1.1,0,1.6.5,13.8,6.5,27.5,13.1,40.6,20.5h0c3.4,1.8,4.5,1.4,6.3-2,3.4-7.2,6.5-14.7,9.9-21.9.2-.7.5-1.4,1.1-2,1.4,2.9,2.7,6.1,4.1,9,2,4.7,4.3,9.3,6.3,14,0,.2,0,.5.5.9,1.8,3.6,2.9,4.1,6.5,2,13.1-7.4,26.6-14.2,40-21,.5,0,.7-.5,1.1-.5,0,.7,0,1.1-.5,1.6-6.3,13.8-12.6,27.5-20.1,40.6h0c-1.8,3.4-1.4,4.5,2,6.1,7.4,3.4,14.7,7,21.9,10.6l1.1.7c0,.9-1.1.9-1.8,1.1-6.8,3.2-13.8,6.1-20.5,9.3-4.3,2-4.7,3.2-2.5,7.2,7.4,13.3,14.4,27.1,21.2,40.9h.5l.2.5ZM31.2,31.1s0-.5-.5,0,0,.2,0,.2c0,1.4.9,2.3,1.6,3.4,3.8,7.4,7.7,14.7,11.5,22.1-5,2.5-10.2,4.7-15.4,7.2,5.2,2.7,10.4,5,15.6,7.2-4.7,8.6-8.8,17.2-12.6,26h.5c8.4-4.1,16.7-8.6,25.3-12.9l7.4,15.8,7-15.8c8.6,4.7,17.2,8.8,26.2,12.9v-.7h0c-3.8-7.9-7.9-15.8-12.2-23.5-.7-1.1,0-1.8.9-2.3,3.4-1.6,6.5-2.9,9.9-4.5,1.1-.5,2.5-.9,3.6-1.8l-15.1-7.4c4.7-8.6,9-17.4,13.1-26.2-8.8,4.3-17.4,8.6-26,13.3l-7.2-16c-2.5,5.4-5,10.8-7.2,16-7.7-4.3-15.4-7.9-23-11.5-.9-.5-1.8-1.1-2.7-1.1h0s-.7-.5-.7-.5Z"/>
  <path class="cls-2" d="M64.2,76.5c-7,0-12.6-5.6-12.6-12.6s5.6-12.6,12.6-12.6,12.6,5.6,12.6,12.6h0c0,7-5.6,12.6-12.6,12.6h0ZM60.8,64.1c0,2,1.6,3.4,3.6,3.4s3.6-1.6,3.6-3.6h0c0-2-1.6-3.6-3.6-3.6s0,0,0,0h0c-1.8,0-3.4,1.8-3.4,3.6h0l-.2.2Z"/>
</svg>