<?xml version="1.0" encoding="UTF-8"?>
<svg id="Layer_1" data-name="Layer 1" xmlns="http://www.w3.org/2000/svg" version="1.1" xmlns:xlink="http://www.w3.org/1999/xlink" viewBox="0 0 64 64">
  <defs>
    <style>
      .cls-1, .cls-2, .cls-3, .cls-4, .cls-5, .cls-6, .cls-7, .cls-8, .cls-9, .cls-10, .cls-11, .cls-12 {
        stroke-width: 0px;
      }

      .cls-1, .cls-3, .cls-13, .cls-6, .cls-7, .cls-8, .cls-9, .cls-10 {
        fill-rule: evenodd;
      }

      .cls-1, .cls-14 {
        fill: #fff;
      }

      .cls-15, .cls-5 {
        fill: none;
      }

      .cls-15, .cls-13, .cls-14 {
        stroke: #bfbfbf;
        stroke-miterlimit: 10;
        stroke-width: .2px;
      }

      .cls-2 {
        fill: url(#linear-gradient-6);
      }

      .cls-3 {
        fill: url(#linear-gradient-3);
      }

      .cls-4 {
        fill: url(#linear-gradient-5);
      }

      .cls-13, .cls-10 {
        fill: #e5e5e5;
      }

      .cls-6 {
        fill: url(#linear-gradient);
      }

      .cls-7 {
        fill: #000;
      }

      .cls-8 {
        fill: url(#linear-gradient-2);
      }

      .cls-9, .cls-11 {
        fill: #7f7f7f;
      }

      .cls-16 {
        clip-path: url(#clippath);
      }

      .cls-17 {
        opacity: .2;
      }

      .cls-12 {
        fill: url(#linear-gradient-4);
      }
    </style>
    <clipPath id="clippath">
      <rect class="cls-5" x="14.4" y="19.1" width="35" height="41.7"/>
    </clipPath>
    <linearGradient id="linear-gradient" x1="37" y1="8.1" x2="37" y2="20.4" gradientTransform="translate(0 66) scale(1 -1)" gradientUnits="userSpaceOnUse">
      <stop offset="0" stop-color="#545454"/>
      <stop offset="1" stop-color="#bfbfbf"/>
    </linearGradient>
    <linearGradient id="linear-gradient-2" x1="37" y1="19.8" x2="37" y2="32.1" gradientTransform="translate(0 66) scale(1 -1)" gradientUnits="userSpaceOnUse">
      <stop offset="0" stop-color="#545454"/>
      <stop offset="1" stop-color="#bfbfbf"/>
    </linearGradient>
    <linearGradient id="linear-gradient-3" x1="37" y1="27.5" x2="36.9" y2="47.1" gradientTransform="translate(0 66) scale(1 -1)" gradientUnits="userSpaceOnUse">
      <stop offset="0" stop-color="#545454"/>
      <stop offset="1" stop-color="#bfbfbf"/>
    </linearGradient>
    <linearGradient id="linear-gradient-4" x1="36.8" y1="62.8" x2="36.8" y2="48.8" gradientTransform="translate(0 66) scale(1 -1)" gradientUnits="userSpaceOnUse">
      <stop offset="0" stop-color="#e5e5e5"/>
      <stop offset="1" stop-color="#7f7f7f"/>
    </linearGradient>
    <linearGradient id="linear-gradient-5" x1="50.6" y1="61.4" x2="50.6" y2="48.8" xlink:href="#linear-gradient-4"/>
    <linearGradient id="linear-gradient-6" x1="23" y1="61.4" x2="23" y2="48.8" xlink:href="#linear-gradient-4"/>
  </defs>
  <g class="cls-16">
    <g>
      <g class="cls-17">
        <path class="cls-7" d="M27.5,60.8c4.1,0,4.1-3.5,9.5-3.5s5.4,3.5,9.3,3.5,3.7-2.3,1.9-7.7c-.1-.4-.3-.8-.5-1.3-.4.1-.8.2-1.3.2h0c0,.6-.2,1.2-.4,1.8-.3.5-.7,1-1.2,1.3-.5.3-1.1.5-1.7.6-.6,0-1.2,0-1.8-.3-.6-.3-1-.7-1.4-1.2-.4-.5-.6-1.1-.7-1.7,0-.6,0-1.2.2-1.8.2-.6.6-1.1,1.1-1.5-1.1-.5-2.3-.8-3.5-.7-1.6,0-3.2.4-4.5,1.3v.7c0,0,0,.2.1.2,0,0,.2.1.2.1h1.8c0,0,.2,0,.2.1,0,0,.1.2.1.2v1c-.1.2-.2.4-.4.4h-1.8c0,0-.2,0-.2.1,0,0-.1.2-.1.2v1.6c0,0,0,.2-.1.2,0,0-.2.1-.2.1h-1c0,0-.2,0-.2-.1,0,0-.1-.2-.1-.2v-1.6c0,0,0-.2-.1-.2,0,0-.2-.1-.2-.1h-1.6c0,0-.2,0-.2-.1,0,0-.1-.2-.1-.2v-.3c-.3,0-.6,0-.9,0-.5,0-.9,0-1.3-.1-.2.4-.3.9-.5,1.2-1.8,5.3-2,7.7,1.8,7.7Z"/>
      </g>
      <path class="cls-6" d="M27.5,57.9c4.1,0,4.1-3.5,9.5-3.5s5.4,3.5,9.3,3.5,3.7-2.3,1.9-7.7c-.1-.4-.3-.8-.5-1.3-.4.1-.8.2-1.3.2h0c0,.6-.2,1.2-.4,1.8-.3.5-.7,1-1.2,1.3-.5.3-1.1.5-1.7.6-.6,0-1.2,0-1.8-.3-.6-.3-1-.7-1.4-1.2-.4-.5-.6-1.1-.7-1.7,0-.6,0-1.2.2-1.8.2-.6.6-1.1,1.1-1.5-1.1-.5-2.3-.8-3.5-.7-1.6,0-3.2.4-4.5,1.3v.7c0,0,0,.2.1.2,0,0,.2.1.2.1h1.8c0,0,.2,0,.2.1,0,0,.1.2.1.2v1c-.1.2-.2.4-.4.4h-1.8c0,0-.2,0-.2.1,0,0-.1.2-.1.2v1.6c0,0,0,.2-.1.2,0,0-.2.1-.2.1h-1c0,0-.2,0-.2-.1,0,0-.1-.2-.1-.2v-1.6c0,0,0-.2-.1-.2,0,0-.2-.1-.2-.1h-1.6c0,0-.2,0-.2-.1,0,0-.1-.2-.1-.2v-.3c-.3,0-.6,0-.9,0-.5,0-.9,0-1.3-.1-.2.4-.3.9-.5,1.2-1.8,5.3-2,7.7,1.8,7.7Z"/>
      <path class="cls-9" d="M42.9,52.8c1,0,1.9-.4,2.6-1.1.7-.7,1.1-1.6,1.1-2.6h-.2c-2.8,0-3.7-1.7-5.9-2.8-.6.5-1,1.1-1.1,1.9-.2.7-.2,1.5.1,2.2.3.7.7,1.3,1.3,1.7.6.4,1.3.7,2.1.7h0Z"/>
      <path class="cls-1" d="M42,47.2c0,0,0,.2,0,.3,0,.2.1.5.3.6.2.2.4.3.6.3.2,0,.4,0,.5-.2"/>
      <path class="cls-15" d="M42,47.2c0,0,0,.2,0,.3,0,.2.1.5.3.6.2.2.4.3.6.3.2,0,.4,0,.5-.2"/>
      <path class="cls-1" d="M44,48.6c0,0-.2.2-.2.3,0,.1,0,.3,0,.4,0,.1,0,.3,0,.4,0,.1.1.2.3.3.1,0,.2.1.4.2.1,0,.3,0,.4,0,.1,0,.2,0,.4-.2.1,0,.2-.2.2-.3,0-.1,0-.2,0-.4,0,0,0-.1,0-.2"/>
      <path class="cls-15" d="M44,48.6c0,0-.2.2-.2.3,0,.1,0,.3,0,.4,0,.1,0,.3,0,.4,0,.1.1.2.3.3.1,0,.2.1.4.2.1,0,.3,0,.4,0,.1,0,.2,0,.4-.2.1,0,.2-.2.2-.3,0-.1,0-.2,0-.4,0,0,0-.1,0-.2"/>
      <path class="cls-10" d="M28.8,49.7h1.6c0,0,.2,0,.2.1,0,0,.1.2.1.2v1.6c0,0,0,.2.1.2,0,0,.2.1.2.1h1c0,0,.2,0,.2-.1,0,0,.1-.2.1-.2v-1.6c0,0,0-.2.1-.2s.2-.1.2-.1h1.8c.2,0,.3-.1.4-.4v-.9c0,0,0-.2-.1-.2,0,0-.2-.1-.2-.1h-1.8c0,0-.2,0-.2-.1,0,0-.1-.2-.1-.3v-.7c-.7.5-1.3,1-2,1.4-.6.4-1.4.6-2.1.7v.3c0,0,0,.2.1.2,0,0,.2.1.2.1Z"/>
      <path class="cls-15" d="M28.4,49v.3c0,0,0,.2.1.2,0,0,.2.1.2.1h1.6c0,0,.2,0,.2.1,0,0,.1.2.1.2v1.6c0,0,0,.2.1.2,0,0,.2.1.2.1h1c0,0,.2,0,.2-.1,0,0,.1-.2.1-.2v-1.6c0,0,0-.2.1-.2s.2-.1.2-.1h1.8c.2,0,.3-.1.4-.4v-.9c0,0,0-.2-.1-.2,0,0-.2-.1-.2-.1h-1.8c0,0-.2,0-.2-.1,0,0-.1-.2-.1-.3v-.7"/>
      <path class="cls-14" d="M41.1,50.2c.2,0,.4,0,.5-.2.1,0,.3-.2.3-.4,0-.2,0-.3,0-.5,0-.2-.1-.3-.3-.5-.1-.1-.3-.2-.5-.3-.2,0-.4,0-.5,0-.2,0-.3.2-.4.3,0,.1-.2.3-.2.5,0,.2.1.5.3.6.2.2.4.3.6.3h0Z"/>
      <path class="cls-14" d="M42.9,51.7c.2,0,.4,0,.6-.2.2-.1.3-.3.3-.5,0-.2,0-.4,0-.6,0-.2-.3-.3-.4-.4-.2,0-.4,0-.6,0-.2,0-.4.2-.5.4-.1.2-.2.4-.1.6s.1.4.3.5c0,0,.2.1.3.2.1,0,.2,0,.3,0Z"/>
      <g class="cls-17">
        <path class="cls-7" d="M27.5,49.1c4.1,0,4.1-3.5,9.5-3.5s5.4,3.5,9.3,3.5,3.7-2.3,1.9-7.7c-.1-.4-.3-.8-.5-1.3-.4.1-.8.2-1.3.2,0,.6-.2,1.2-.4,1.8-.3.5-.7,1-1.2,1.3-.5.3-1.1.5-1.7.6-.6,0-1.2,0-1.8-.3-.6-.3-1-.7-1.4-1.2-.4-.5-.6-1.1-.7-1.7,0-.6,0-1.2.2-1.8.2-.6.6-1.1,1.1-1.5-1.1-.5-2.3-.8-3.5-.7-1.6,0-3.2.4-4.5,1.3v.7c0,0,0,.2.1.2,0,0,.2.1.2.1h1.8c0,0,.2,0,.2.1,0,0,.1.2.1.2v1c-.1.2-.2.4-.4.4h-1.8c0,0-.2,0-.2.1,0,0-.1.2-.1.2v1.6c0,0,0,.2-.1.2,0,0-.2.1-.2.1h-1c0,0-.2,0-.2-.1,0,0-.1-.2-.1-.2v-1.6c0,0,0-.2-.1-.2,0,0-.2-.1-.2-.1h-1.6c0,0-.2,0-.2-.1,0,0-.1-.2-.1-.2v-.3c-.3,0-.6,0-.9,0-.5,0-.9,0-1.3-.1-.2.4-.3.9-.5,1.2-1.8,5.3-2,7.7,1.8,7.7Z"/>
      </g>
      <path class="cls-8" d="M27.5,46.2c4.1,0,4.1-3.5,9.5-3.5s5.4,3.5,9.3,3.5,3.7-2.3,1.9-7.7c-.1-.4-.3-.8-.5-1.3-.4.1-.8.2-1.3.2h0c0,.6-.2,1.2-.4,1.8-.3.5-.7,1-1.2,1.3-.5.3-1.1.5-1.7.6-.6,0-1.2,0-1.8-.3-.6-.3-1-.7-1.4-1.2-.4-.5-.6-1.1-.7-1.7,0-.6,0-1.2.2-1.8.2-.6.6-1.1,1.1-1.5-1.1-.5-2.3-.8-3.5-.7-1.6,0-3.2.4-4.5,1.3v.7c0,0,0,.2.1.2,0,0,.2.1.2.1h1.8c0,0,.2,0,.2.1,0,0,.1.2.1.2v1c-.1.2-.2.4-.4.4h-1.8c0,0-.2,0-.2.1,0,0-.1.2-.1.2v1.6c0,0,0,.2-.1.2,0,0-.2.1-.2.1h-1c0,0-.2,0-.2-.1,0,0-.1-.2-.1-.2v-1.6c0,0,0-.2-.1-.2,0,0-.2-.1-.2-.1h-1.6c0,0-.2,0-.2-.1,0,0-.1-.2-.1-.2v-.3c-.3,0-.6,0-.9,0-.5,0-.9,0-1.3-.1-.2.4-.3.9-.5,1.2-1.8,5.3-2,7.7,1.8,7.7Z"/>
      <path class="cls-9" d="M42.9,41.1c1,0,1.9-.4,2.6-1.1s1.1-1.6,1.1-2.6h-.2c-2.8,0-3.7-1.7-5.9-2.8-.6.5-1,1.1-1.1,1.9-.2.7-.1,1.5.1,2.2.3.7.7,1.3,1.3,1.7.6.4,1.3.7,2.1.7h0Z"/>
      <path class="cls-1" d="M42,35.5c0,0,0,.2,0,.3,0,.2.1.5.3.6.2.2.4.3.6.3.2,0,.4,0,.5-.2"/>
      <path class="cls-15" d="M42,35.5c0,0,0,.2,0,.3,0,.2.1.5.3.6.2.2.4.3.6.3.2,0,.4,0,.5-.2"/>
      <path class="cls-1" d="M44,36.9c0,0-.2.2-.2.3,0,.1,0,.3,0,.4,0,.1,0,.3,0,.4,0,.1.1.2.3.3.1,0,.2.1.4.2.1,0,.3,0,.4,0,.1,0,.2,0,.4-.2.1,0,.2-.2.2-.3,0-.1,0-.2,0-.4,0,0,0-.1,0-.2"/>
      <path class="cls-15" d="M44,36.9c0,0-.2.2-.2.3,0,.1,0,.3,0,.4,0,.1,0,.3,0,.4,0,.1.1.2.3.3.1,0,.2.1.4.2.1,0,.3,0,.4,0,.1,0,.2,0,.4-.2.1,0,.2-.2.2-.3,0-.1,0-.2,0-.4,0,0,0-.1,0-.2"/>
      <path class="cls-10" d="M28.8,38h1.6c0,0,.2,0,.2.1,0,0,.1.2.1.2v1.6c0,0,0,.2.1.2,0,0,.2.1.2.1h1c0,0,.2,0,.2-.1,0,0,.1-.2.1-.2v-1.6c0,0,0-.2.1-.2,0,0,.2-.1.2-.1h1.8c.2,0,.3-.1.4-.4v-.9c0,0,0-.2-.1-.2,0,0-.2-.1-.2-.1h-1.8c0,0-.2,0-.2-.1,0,0-.1-.2-.1-.3v-.7c-.7.5-1.3,1-2,1.4-.6.4-1.3.7-2.1.8v.3c0,0,0,.2.1.2s.1,0,.2,0h0Z"/>
      <path class="cls-15" d="M28.4,37.3v.3c0,0,0,.2.1.2,0,0,.2.1.2.1h1.6c0,0,.2,0,.2.1,0,0,.1.2.1.2v1.6c0,0,0,.2.1.2,0,0,.2.1.2.1h1c0,0,.2,0,.2-.1,0,0,.1-.2.1-.2v-1.6c0,0,0-.2.1-.2,0,0,.2-.1.2-.1h1.8c.2,0,.3-.1.4-.4v-.9c0,0,0-.2-.1-.2,0,0-.2-.1-.2-.1h-1.8c0,0-.2,0-.2-.1,0,0-.1-.2-.1-.3v-.7"/>
      <path class="cls-14" d="M41.1,38.4c.2,0,.4,0,.5-.2.1,0,.3-.2.3-.4,0-.2,0-.3,0-.5,0-.2-.1-.3-.3-.5-.1-.1-.3-.2-.5-.3-.2,0-.4,0-.5,0-.2,0-.3.2-.4.3,0,.1-.2.3-.2.5,0,.2.1.5.3.6.2.2.4.3.6.3h0Z"/>
      <path class="cls-14" d="M42.9,40c.2,0,.4,0,.6-.2.2-.1.3-.3.3-.5,0-.2,0-.4,0-.6,0-.2-.3-.3-.4-.4-.2,0-.4,0-.6,0-.2,0-.4.2-.5.4-.1.2-.2.4-.1.6s.1.4.3.5c0,0,.2.1.3.2.1,0,.2,0,.3,0h0Z"/>
      <g class="cls-17">
        <path class="cls-7" d="M48.3,29.7c-1-2.8-3.2-7.7-5.1-7.7-3.2,0-3.2.8-4.3.8h-3.7c-1.2,0-1.2-.8-4.3-.8s-4.1,4.9-5.1,7.7c-1.8,5.3-2,7.7,1.8,7.7s4.1-3.5,9.5-3.5,5.4,3.5,9.3,3.5,3.7-2.4,1.9-7.7ZM35,28.8c-.1.2-.2.4-.4.4h-1.8c0,0-.2,0-.2.1,0,0-.1.2-.1.2v1.6c0,0,0,.2-.1.2s-.2.1-.2.1h-1c0,0-.2,0-.2-.1,0,0-.1-.2-.1-.2v-1.6c0,0,0-.2-.1-.2,0,0-.2-.1-.2-.1h-1.6c0,0-.2,0-.2-.1,0,0-.1-.2-.1-.2v-.9c0,0,0-.2.1-.2,0,0,.2-.1.2-.1h1.6c0,0,.2,0,.2-.1,0,0,.1-.2.1-.2v-1.8c0,0,0-.2.1-.2,0,0,.2-.1.2-.1h1c0,0,.2,0,.2.1,0,0,.1.2.1.2v1.8c0,0,0,.2.1.2,0,0,.2.1.2.1h1.8c0,0,.2,0,.2.1,0,0,.1.2.1.2v.9ZM42.9,32.3c-.7,0-1.4-.2-2-.6-.6-.4-1.1-1-1.3-1.6-.3-.7-.3-1.4-.2-2.1.1-.7.5-1.3,1-1.9.5-.5,1.2-.9,1.9-1,.7-.1,1.4,0,2.1.2.9.4,1.6,1.1,2,2,.4.9.4,1.9,0,2.8-.2.4-.4.9-.8,1.2s-.7.6-1.2.8c-.4.2-.9.3-1.4.3h0Z"/>
      </g>
      <path class="cls-3" d="M48.3,26.8c-1-2.8-3.2-7.7-5.1-7.7-3.2,0-3.2.8-4.3.8h-3.7c-1.2,0-1.2-.8-4.3-.8s-4.1,4.9-5.1,7.7c-1.8,5.3-2,7.7,1.8,7.7s4.1-3.5,9.5-3.5,5.4,3.5,9.3,3.5,3.7-2.4,1.9-7.7ZM35,25.9c-.1.2-.2.4-.4.4h-1.8c0,0-.2,0-.2.1,0,0-.1.2-.1.2v1.6c0,0,0,.2-.1.2s-.2.1-.2.1h-1c0,0-.2,0-.2-.1,0,0-.1-.2-.1-.2v-1.6c0,0,0-.2-.1-.2,0,0-.2-.1-.2-.1h-1.6c0,0-.2,0-.2-.1,0,0-.1-.2-.1-.2v-.9c0,0,0-.2.1-.2,0,0,.2-.1.2-.1h1.6c0,0,.2,0,.2-.1,0,0,.1-.2.1-.2v-1.8c0,0,0-.2.1-.3,0,0,.2-.1.2-.1h1c0,0,.2,0,.2.1,0,0,.1.2.1.2v1.8c0,0,0,.2.1.2,0,0,.2.1.2.1h1.8c0,0,.2,0,.2.1,0,0,.1.2.1.2v.9ZM42.9,29.4c-.7,0-1.4-.2-2-.6-.6-.4-1.1-1-1.3-1.6-.3-.7-.3-1.4-.2-2.1.1-.7.5-1.3,1-1.9.5-.5,1.2-.9,1.9-1,.7-.1,1.4,0,2.1.2.8.3,1.4.9,1.8,1.7.4.7.5,1.6.4,2.4-.2.8-.6,1.6-1.3,2.1-.7.5-1.5.8-2.3.8Z"/>
      <path class="cls-11" d="M42.9,29.4c.7,0,1.4-.2,2-.6.6-.4,1.1-1,1.3-1.6.3-.7.4-1.4.2-2.1-.1-.7-.5-1.4-1-1.9-.5-.5-1.2-.9-1.9-1-.7-.1-1.4,0-2.1.2-.8.3-1.4.9-1.8,1.6-.4.7-.5,1.6-.4,2.4s.6,1.6,1.3,2.1c.6.5,1.5.8,2.3.8Z"/>
      <path class="cls-14" d="M42.9,25c.2,0,.3,0,.5-.2.1,0,.3-.2.3-.4,0-.2,0-.3,0-.5,0-.2-.1-.3-.3-.5-.1-.1-.3-.2-.5-.3-.2,0-.4,0-.5,0-.2,0-.3.2-.4.3,0,.1-.2.3-.2.5,0,.1,0,.2,0,.4,0,.1.1.2.2.3,0,0,.2.2.3.2.1,0,.2,0,.4,0h0Z"/>
      <path class="cls-14" d="M44.6,26.7c.2,0,.3,0,.5-.2.1-.1.3-.2.3-.4,0-.2,0-.3,0-.5,0-.2-.1-.3-.2-.5-.1-.1-.3-.2-.5-.2-.2,0-.4,0-.5,0-.2,0-.3.2-.4.3,0,.1-.1.3-.2.5,0,.1,0,.2,0,.3,0,.1.1.2.2.3,0,0,.2.1.3.2.1,0,.2,0,.3,0h0Z"/>
      <path class="cls-14" d="M41.1,26.7c.2,0,.4,0,.5-.2.1,0,.3-.2.3-.4,0-.2,0-.3,0-.5,0-.2-.1-.3-.3-.5-.1-.1-.3-.2-.5-.3-.2,0-.4,0-.5,0-.2,0-.3.2-.4.3,0,.1-.2.3-.2.5,0,.2.1.5.3.6.2.2.4.3.6.3h0Z"/>
      <path class="cls-14" d="M42.9,28.3c.2,0,.4,0,.6-.2.2-.1.3-.3.3-.5,0-.2,0-.4,0-.6,0-.2-.3-.3-.4-.4-.2,0-.4,0-.6,0-.2,0-.4.2-.5.4-.1.2-.2.4-.1.6,0,.2.1.4.3.5,0,0,.2.1.3.2.1,0,.2,0,.3,0h0Z"/>
      <path class="cls-13" d="M34.6,26.3h-1.8c0,0-.2,0-.2.1,0,0-.1.2-.1.2v1.6c0,0,0,.2-.1.2s-.2.1-.2.1h-1c0,0-.2,0-.2-.1,0,0-.1-.2-.1-.2v-1.6c0,0,0-.2-.1-.2,0,0-.2-.1-.2-.1h-1.6c0,0-.2,0-.2-.1,0,0-.1-.2-.1-.2v-.9c0,0,0-.2.1-.2,0,0,.2-.1.2-.1h1.6c0,0,.2,0,.2-.1,0,0,.1-.2.1-.2v-1.8c0,0,0-.2.1-.3,0,0,.2-.1.2-.1h1c0,0,.2,0,.2.1,0,0,.1.2.1.2v1.8c0,0,0,.2.1.2,0,0,.2.1.2.1h1.8c0,0,.2,0,.2.1,0,0,.1.2.1.2v1c-.1.2-.2.3-.4.3Z"/>
      <path class="cls-9" d="M14.4,22.8h8v2.2h-5.9v12.4h5.9v2.2h-5.9v12.4h5.9v2.2h-8v-31.5Z"/>
    </g>
  </g>
  <g>
    <path class="cls-12" d="M41,3.2h-8.4l4.2,14,4.2-14Z"/>
    <path class="cls-4" d="M54.8,7.3l-5.4-2.7-3.1,12.7,8.5-9.9Z"/>
    <path class="cls-2" d="M18.8,7.3l5.4-2.7,3.1,12.7-8.5-9.9Z"/>
  </g>
</svg>