<?xml version="1.0" encoding="UTF-8"?>
<svg xmlns="http://www.w3.org/2000/svg" version="1.1" xmlns:xlink="http://www.w3.org/1999/xlink" viewBox="0 0 800 800">
  <defs>
    <style>
      .cls-1 {
        fill: url(#New_Gradient_Swatch_1);
      }
    </style>
    <linearGradient id="New_Gradient_Swatch_1" data-name="New Gradient Swatch 1" x1="0" y1="400" x2="800" y2="400" gradientUnits="userSpaceOnUse">
      <stop offset="0" stop-color="#999"/>
      <stop offset="1" stop-color="#f2f2f2"/>
    </linearGradient>
  </defs>
  <!-- Generator: Adobe Illustrator 28.6.0, SVG Export Plug-In . SVG Version: 1.2.0 Build 709)  -->
  <g>
    <g id="Layer_1">
      <path class="cls-1" d="M796.7,467.3l-70.2-84.2c-.7-.8-1.5-1.3-2.3-1.9-.5-.4-.9-1-1.5-1.3L259.6,113.3c-3.7-2.1-8.1-2.5-12-.9l-182.5,70.2c-1.4.5-2.5,1.4-3.6,2.3-.3.3-.7.4-1,.7-1.4,1.3-2.5,3-3.2,4.7,0,0-.1.1-.1.2L1,330.8c-2.5,6.2-.2,13.3,5.4,17l519.3,336.8c.3.2.7.3,1.1.5.4.2.8.4,1.2.5,1.7.7,3.5,1.2,5.4,1.2h0c1.7,0,3.5-.4,5.1-1.1.2,0,.4,0,.5-.1,1-.5,2-1,2.9-1.7,0,0,0,2.3,0,2.3v2.3h0l252.6-198.8c3-2.3,4.9-8.2,5.3-11.9.4-3.8-.7-7.6-3.2-10.5ZM251.4,140.9l438.6,252.5-129.2,94L101.4,198.7l150-57.7ZM523,649.4L31.4,330.5l45.6-114,469.1,294.8-23,138.1ZM553.1,639.7l21.2-127.3,139.1-101.2,52.5,63-212.8,165.5Z"/>
    </g>
  </g>
</svg>