<?xml version="1.0" encoding="UTF-8"?>
<svg id="Pawn_64" data-name="Pawn 64" xmlns="http://www.w3.org/2000/svg" version="1.1" xmlns:xlink="http://www.w3.org/1999/xlink" viewBox="0 0 128 128">
  <defs>
    <style>
      .cls-1 {
        fill: url(#linear-gradient);
      }

      .cls-1, .cls-2, .cls-3, .cls-4, .cls-5, .cls-6, .cls-7, .cls-8 {
        stroke-width: 0px;
      }

      .cls-2 {
        fill: #fff;
        isolation: isolate;
        opacity: .3;
      }

      .cls-2, .cls-5 {
        fill-rule: evenodd;
      }

      .cls-9 {
        stroke: url(#linear-gradient-6);
      }

      .cls-9, .cls-4, .cls-10 {
        fill: none;
      }

      .cls-9, .cls-10 {
        stroke-miterlimit: 10;
      }

      .cls-3 {
        fill: url(#linear-gradient-5);
      }

      .cls-10 {
        stroke: url(#linear-gradient-7);
      }

      .cls-5 {
        fill: url(#linear-gradient-2);
      }

      .cls-6 {
        fill: url(#linear-gradient-3);
      }

      .cls-7 {
        fill: url(#radial-gradient);
      }

      .cls-8 {
        fill: url(#linear-gradient-4);
      }
    </style>
    <linearGradient id="linear-gradient" x1="119.2" y1="110.5" x2="101.3" y2="102.1" gradientTransform="translate(0 130) scale(1 -1)" gradientUnits="userSpaceOnUse">
      <stop offset="0" stop-color="#4d4d4d"/>
      <stop offset="1" stop-color="#333"/>
    </linearGradient>
    <linearGradient id="linear-gradient-2" x1="75.4" y1="101.2" x2="122.5" y2="101.2" gradientTransform="translate(0 130) scale(1 -1)" gradientUnits="userSpaceOnUse">
      <stop offset="0" stop-color="#999"/>
      <stop offset=".6" stop-color="#c9c9c9"/>
      <stop offset="1" stop-color="#e6e6e6"/>
    </linearGradient>
    <linearGradient id="linear-gradient-3" x1="46.9" y1="-1857.6" x2="46.9" y2="-1913.2" gradientTransform="translate(0 -1804) scale(1 -1)" gradientUnits="userSpaceOnUse">
      <stop offset=".3" stop-color="#242424"/>
      <stop offset=".4" stop-color="#595959"/>
      <stop offset="1" stop-color="#8a8a8a"/>
    </linearGradient>
    <linearGradient id="linear-gradient-4" x1="46.9" y1="-1856" x2="46.9" y2="-1870.2" gradientTransform="translate(0 -1804) scale(1 -1)" gradientUnits="userSpaceOnUse">
      <stop offset="0" stop-color="#fff"/>
      <stop offset=".8" stop-color="gray"/>
      <stop offset="1" stop-color="#4a4a4a"/>
    </linearGradient>
    <linearGradient id="linear-gradient-5" x1="47" y1="-1913.2" x2="47" y2="-1927.2" gradientTransform="translate(0 -1804) scale(1 -1)" gradientUnits="userSpaceOnUse">
      <stop offset="0" stop-color="#bfbfbf"/>
      <stop offset=".7" stop-color="gray"/>
      <stop offset="1" stop-color="#333"/>
    </linearGradient>
    <linearGradient id="linear-gradient-6" x1="-750.8" y1="-1914.4" x2="-690" y2="-1914.4" gradientTransform="translate(969.9 -1804) scale(1.3 -1)" gradientUnits="userSpaceOnUse">
      <stop offset="0" stop-color="#e6e6e6" stop-opacity="0"/>
      <stop offset=".5" stop-color="#fff"/>
      <stop offset="1" stop-color="#fff" stop-opacity="0"/>
    </linearGradient>
    <linearGradient id="linear-gradient-7" x1="-737.4" y1="-1858.4" x2="-702.2" y2="-1858.4" gradientTransform="translate(969.9 -1804) scale(1.3 -1)" gradientUnits="userSpaceOnUse">
      <stop offset="0" stop-color="#e6e6e6" stop-opacity="0"/>
      <stop offset=".5" stop-color="#fff"/>
      <stop offset="1" stop-color="#fff" stop-opacity="0"/>
    </linearGradient>
    <radialGradient id="radial-gradient" cx="51.4" cy="-1829.4" fx="51.4" fy="-1829.4" r="24.8" gradientTransform="translate(0 -1804) scale(1 -1)" gradientUnits="userSpaceOnUse">
      <stop offset="0" stop-color="#fff"/>
      <stop offset=".2" stop-color="#ccc"/>
      <stop offset=".6" stop-color="#838383"/>
      <stop offset=".8" stop-color="#666"/>
      <stop offset="1" stop-color="#999"/>
    </radialGradient>
  </defs>
  <g>
    <circle class="cls-1" cx="99.4" cy="28.8" r="23.7"/>
    <path class="cls-5" d="M114.7,46.7c4.2-3.6,6.7-8.4,7.7-13.5.1-.4-.1-.6-.5-.7l-22.1-3.5c-.4-.1-.6-.5-.4-.8l11.3-19.2c.1-.2.1-.6-.2-.8-8.4-4.7-19.5-3.6-27.1,3.2-9.7,8.4-10.7,23.6-2.2,33.3,8.8,9.6,23.4,10.5,33.5,2.1Z"/>
    <path class="cls-2" d="M115.5,14.3c-.5-.8-1.3-1.4-1.9-1.9-.2-.2-.6-.1-.7.1l-10.4,14.3c-.2.4,0,.7.4.7l17.2.6c.2,0,.5-.2.5-.5,0-4.7-1.6-9.6-5-13.4Z"/>
    <rect class="cls-4" x="61.2" y="-8" width="75" height="75"/>
  </g>
  <g>
    <path class="cls-6" d="M60.8,81.4v-27.8h-27.8v27.8c0,15.2-6.8,27.8-22.2,27.8h72.2c-15.4,0-22.2-12.4-22.2-27.8Z"/>
    <path class="cls-8" d="M67.6,67.6H26c-4.2,0-7-2.8-7-7s2.8-7,7-7h41.8c4.2,0,7,2.8,7,7s-3,7-7.2,7Z"/>
    <path class="cls-3" d="M88.6,123.2H5.2v-7c0-4.2,2.8-7,7-7h69.6c4.2,0,7,2.8,7,7v7h-.2Z"/>
    <line class="cls-9" x1="7.6" y1="110.4" x2="85.6" y2="110.4"/>
    <line class="cls-10" x1="25" y1="54.4" x2="69.8" y2="54.4"/>
    <path class="cls-7" d="M47.4,50.2c9.6,0,17.4-7.8,17.4-17.4s-7.8-17.4-17.4-17.4-17.4,7.8-17.4,17.4,7.8,17.4,17.4,17.4Z"/>
    <rect class="cls-4" x="-17" y="6.2" width="128" height="128"/>
  </g>
</svg>