<?xml version="1.0" encoding="UTF-8"?>
<svg id="GameModeBase_64" data-name="GameModeBase 64" xmlns="http://www.w3.org/2000/svg" version="1.1" xmlns:xlink="http://www.w3.org/1999/xlink" viewBox="0 0 128 128">
  <defs>
    <style>
      .cls-1 {
        fill: url(#linear-gradient-7);
      }

      .cls-1, .cls-2, .cls-3, .cls-4, .cls-5, .cls-6, .cls-7, .cls-8, .cls-9, .cls-10, .cls-11, .cls-12 {
        stroke-width: 0px;
      }

      .cls-1, .cls-3, .cls-8, .cls-9, .cls-11, .cls-12 {
        fill-rule: evenodd;
      }

      .cls-2 {
        fill: url(#linear-gradient);
      }

      .cls-3 {
        fill: #fff;
        isolation: isolate;
        opacity: .3;
      }

      .cls-4 {
        fill: url(#linear-gradient-6);
      }

      .cls-5 {
        fill: #5b5b5b;
      }

      .cls-6 {
        fill: url(#linear-gradient-5);
      }

      .cls-7 {
        fill: none;
      }

      .cls-8 {
        fill: #bfbfbf;
      }

      .cls-9 {
        fill: url(#linear-gradient-2);
      }

      .cls-10 {
        fill: url(#linear-gradient-3);
      }

      .cls-11 {
        fill: #7f7f7f;
      }

      .cls-13 {
        display: none;
      }

      .cls-12 {
        fill: url(#linear-gradient-4);
      }
    </style>
    <linearGradient id="linear-gradient" x1="115.2" y1="1904" x2="79.2" y2="1920.8" gradientTransform="translate(0 -1870)" gradientUnits="userSpaceOnUse">
      <stop offset="0" stop-color="#0e0e0e"/>
      <stop offset="1" stop-color="#0b0b0b"/>
    </linearGradient>
    <linearGradient id="linear-gradient-2" x1="27.4" y1="1922.6" x2="121.6" y2="1922.6" gradientTransform="translate(0 -1870)" gradientUnits="userSpaceOnUse">
      <stop offset="0" stop-color="#5a5a5a"/>
      <stop offset=".6" stop-color="#8a8a8a"/>
      <stop offset="1" stop-color="#a7a7a7"/>
    </linearGradient>
    <linearGradient id="linear-gradient-3" x1="115.2" y1="1904" x2="79.2" y2="1920.8" gradientTransform="translate(0 -1870)" gradientUnits="userSpaceOnUse">
      <stop offset="0" stop-color="#4d4d4d"/>
      <stop offset="1" stop-color="#333"/>
    </linearGradient>
    <linearGradient id="linear-gradient-4" x1="27.4" y1="1922.6" x2="121.6" y2="1922.6" gradientTransform="translate(0 -1870)" gradientUnits="userSpaceOnUse">
      <stop offset="0" stop-color="#999"/>
      <stop offset=".6" stop-color="#c9c9c9"/>
      <stop offset="1" stop-color="#e6e6e6"/>
    </linearGradient>
    <linearGradient id="linear-gradient-5" x1="48" y1="-1847.4" x2="48" y2="-1902.4" gradientTransform="translate(0 -1804) scale(1 -1)" gradientUnits="userSpaceOnUse">
      <stop offset="0" stop-color="#333"/>
      <stop offset="1" stop-color="#666"/>
    </linearGradient>
    <linearGradient id="linear-gradient-6" x1="47.9" y1="-1906.9" x2="47.9" y2="-1842.6" gradientTransform="translate(0 -1804) scale(1 -1)" gradientUnits="userSpaceOnUse">
      <stop offset="0" stop-color="#999"/>
      <stop offset="1" stop-color="#f2f2f2"/>
    </linearGradient>
    <linearGradient id="linear-gradient-7" x1="47.8" y1="-1929.4" x2="47.8" y2="-1921.2" gradientTransform="translate(0 -1804) scale(1 -1)" gradientUnits="userSpaceOnUse">
      <stop offset="0" stop-color="gray"/>
      <stop offset="1" stop-color="gray"/>
    </linearGradient>
  </defs>
  <g>
    <circle class="cls-2" cx="75.4" cy="52.6" r="47.3"/>
    <path class="cls-9" d="M106.1,88.2c8.4-7.3,13.4-16.9,15.5-27,.2-.7-.2-1.2-.9-1.4l-44.3-7c-.7-.2-1.2-.9-.7-1.6l22.5-38.4c.2-.5.2-1.2-.5-1.6-16.9-9.4-38.9-7.3-54.1,6.3-19.5,16.9-21.3,47.1-4.5,66.6,17.6,19.2,46.9,21.1,67,4.2h0Z"/>
    <path class="cls-3" d="M107.8,23.5c-.9-1.6-2.6-2.8-3.7-3.8-.5-.5-1.2-.2-1.4.2l-20.9,28.6c-.5.7,0,1.4.7,1.4l34.5,1.2c.5,0,.9-.5.9-.9,0-9.4-3.3-19.2-10.1-26.7Z"/>
    <rect class="cls-7" x="-1" y="-21" width="150" height="150"/>
  </g>
  <g class="cls-13">
    <circle class="cls-10" cx="75.4" cy="52.6" r="47.3"/>
    <path class="cls-12" d="M106.1,88.2c8.4-7.3,13.4-16.9,15.5-27,.2-.7-.2-1.2-.9-1.4l-44.3-7c-.7-.2-1.2-.9-.7-1.6l22.5-38.4c.2-.5.2-1.2-.5-1.6-16.9-9.4-38.9-7.3-54.1,6.3-19.5,16.9-21.3,47.1-4.5,66.6,17.6,19.2,46.9,21.1,67,4.2h0Z"/>
    <path class="cls-3" d="M107.8,23.5c-.9-1.6-2.6-2.8-3.7-3.8-.5-.5-1.2-.2-1.4.2l-20.9,28.6c-.5.7,0,1.4.7,1.4l34.5,1.2c.5,0,.9-.5.9-.9,0-9.4-3.3-19.2-10.1-26.7Z"/>
    <rect class="cls-7" x="-1" y="-21" width="150" height="150"/>
  </g>
  <g>
    <rect class="cls-7" x="-6.9" y="26.5" width="110.1" height="110.1"/>
    <g>
      <rect class="cls-5" x="39.2" y="105" width="16.9" height="13.1"/>
      <path class="cls-11" d="M34.5,98.8c0,4.6,5.8,8.3,13.2,8.3s13.2-3.8,13.2-8.3h-26.5Z"/>
      <rect class="cls-6" x="9.3" y="42.7" width="77.4" height="56.1"/>
      <path class="cls-4" d="M85.5,45.6v50.2c0,.9-.7,1.7-1.7,1.7H12c-.9,0-1.7-.7-1.7-1.7v-50.2c0-.9.7-1.7,1.7-1.7h71.7c1,0,1.7.9,1.7,1.7ZM89.1,38.6H6.7c-.9,0-1.7.7-1.7,1.7v60.9c0,.9.7,1.7,1.7,1.7h82.4c.9,0,1.7-.7,1.7-1.7v-60.9c0-1-.7-1.7-1.7-1.7Z"/>
      <path class="cls-8" d="M72.7,124.6c0-4.6-11.2-8.8-24.9-8.8s-25.1,4.1-25.1,8.8h50Z"/>
      <path class="cls-1" d="M72.7,125.2c.5-4.8-11.2-8.3-24.9-8.3s-25.5,3.6-24.9,8.3h49.9Z"/>
    </g>
  </g>
</svg>